<?xml version="1.0" encoding="UTF-8" standalone="no"?>
<!-- Created with Inkscape (http://www.inkscape.org/) -->

<svg
   xmlns:osb="http://www.openswatchbook.org/uri/2009/osb"
   xmlns:dc="http://purl.org/dc/elements/1.1/"
   xmlns:cc="http://creativecommons.org/ns#"
   xmlns:rdf="http://www.w3.org/1999/02/22-rdf-syntax-ns#"
   xmlns:svg="http://www.w3.org/2000/svg"
   xmlns="http://www.w3.org/2000/svg"
   xmlns:sodipodi="http://sodipodi.sourceforge.net/DTD/sodipodi-0.dtd"
   xmlns:inkscape="http://www.inkscape.org/namespaces/inkscape"
   width="210mm"
   height="297mm"
   viewBox="0 0 744.09448819 1052.3622047"
   id="svg2"
   version="1.1"
   inkscape:version="0.91 r13725"
   sodipodi:docname="LPO.svg">
  <defs
     id="defs4">
    <linearGradient
       id="linearGradient4201"
       osb:paint="solid">
      <stop
         style="stop-color:#ff0000;stop-opacity:1;"
         offset="0"
         id="stop4203" />
    </linearGradient>
  </defs>
  <sodipodi:namedview
     id="base"
     pagecolor="#ffffff"
     bordercolor="#666666"
     borderopacity="1.0"
     inkscape:pageopacity="0.0"
     inkscape:pageshadow="2"
     inkscape:zoom="0.35"
     inkscape:cx="-120.71429"
     inkscape:cy="520"
     inkscape:document-units="px"
     inkscape:current-layer="layer1"
     showgrid="false"
     inkscape:window-width="1855"
     inkscape:window-height="1056"
     inkscape:window-x="65"
     inkscape:window-y="24"
     inkscape:window-maximized="1" />
  <metadata
     id="metadata7">
    <rdf:RDF>
      <cc:Work
         rdf:about="">
        <dc:format>image/svg+xml</dc:format>
        <dc:type
           rdf:resource="http://purl.org/dc/dcmitype/StillImage" />
        <dc:title></dc:title>
      </cc:Work>
    </rdf:RDF>
  </metadata>
  <g
     inkscape:label="Calque 1"
     inkscape:groupmode="layer"
     id="layer1">
    <ellipse
       style="fill:#e3dbdb;fill-opacity:1;stroke:none;stroke-opacity:1"
       id="path3336"
       cx="365.71429"
       cy="612.36218"
       rx="214.28572"
       ry="211.42857" />
    <g
       id="g3381"
       transform="matrix(0.48584727,0,0,0.51747656,225.24323,444.26788)">
      <g
         id="g3339">
        <g
           id="g3341">
          <path
             id="path3343"
             d="m 556.92,407.511 c 9.05,-5.9 9.977,-11.314 2.746,-18.671 -2.623,-2.668 -5.858,-4.993 -9.232,-6.597 -4.346,-2.064 -9.111,-3.239 -13.812,-4.839 10.103,-4.541 11.106,-5.558 13.962,-14.007 l -4.288,-6.866 c -14.863,-7.585 -29.616,-5.337 -44.219,0.709 -12.231,5.063 -24.223,10.739 -36.561,15.521 -15.361,5.953 -31.013,7.662 -46.818,7.373 -0.722,-0.114 -1.452,-0.212 -2.191,-0.277 -20.566,-1.73 -43.778,-6.377 -65.096,-12.808 2.974,-3.713 5.822,-7.462 8.299,-11.44 5.141,-8.254 3.528,-11.016 -6.353,-14.369 5.479,-5.945 10.938,-11.444 15.896,-17.365 4.438,-5.3 8.702,-10.832 12.329,-16.703 2.632,-4.255 4.023,-9.485 0.258,-13.896 -4.064,-4.757 -9.633,-4.026 -15.022,-2.632 -1.388,0.359 -2.673,1.109 -4.803,2.023 3.525,-10.15 7.263,-19.269 9.78,-28.71 1.881,-7.066 3.211,-14.586 2.994,-21.848 -0.493,-16.532 -7.874,-20.592 -22.399,-13.244 1.058,-11.755 2.652,-23.48 2.995,-35.243 0.253,-8.682 -0.347,-17.564 -1.963,-26.092 -2.631,-13.917 -6.907,-15.186 -17.185,-6.226 -0.926,-8.352 -1.6,-16.716 -2.881,-24.99 -0.575,-3.709 -2.129,-7.332 -3.635,-10.824 -4.361,-10.115 -9.054,-10.886 -16.997,-3.439 -2.771,-8.601 -5.598,-17.417 -8.462,-26.222 -0.277,-0.849 -0.719,-1.648 -1.146,-2.44 -4.688,-8.633 -7.679,-8.972 -13.86,-1.489 -6.275,-10.857 -8.405,-24.586 -21.379,-30.722 l -5.72,3.574 c -4.606,12.966 -2.668,26.067 -0.408,39.05 0.551,3.162 1.012,6.308 1.395,9.445 -0.546,2.954 -0.387,6.03 0.71,8.988 0.069,0.188 0.135,0.379 0.204,0.567 0.853,12.134 0.481,24.068 -0.869,35.839 -0.501,2.175 -1,4.354 -1.501,6.528 -0.212,0.922 -0.053,1.709 0.314,2.342 -3.835,24.325 -11.779,47.98 -22.024,71.277 -2.44,5.549 -4.5,11.265 -6.846,16.858 -10.918,26.031 -2.097,49.16 10.277,71.902 4.178,7.683 8.005,15.605 11.318,23.696 1.082,2.644 1.942,5.186 2.583,7.626 -7.059,-10.355 -14.121,-20.711 -21.18,-31.062 -4.067,-7.409 -8.886,-14.366 -14.888,-20.588 -2.289,-2.37 -5.908,-3.46 -8.915,-5.137 -1.419,2.831 -2.839,5.663 -4.316,8.604 -3.978,-4.564 -8.168,-9.947 -12.97,-14.712 -4.113,-4.084 -8.621,-7.928 -13.484,-11.053 -9.568,-6.153 -13.856,-4.174 -16.381,5.663 -8.168,-6.903 -16.671,-14.296 -25.439,-21.359 -2.195,-1.771 -5.157,-2.721 -7.903,-3.656 -6.997,-2.383 -9.392,-1.379 -12.713,4.431 -7.103,-3.998 -13.896,-8.69 -21.346,-11.812 -11.049,-4.631 -16.234,-1.828 -19.764,9.47 -12.57,-8.882 -26.39,-14.655 -41.653,-15.729 -7.731,-0.542 -15.655,0.245 -23.358,1.363 -3.542,0.514 -7.128,2.828 -9.988,5.182 -1.771,1.457 -3.399,4.798 -2.93,6.785 0.457,1.934 3.468,3.68 5.725,4.664 2.411,1.053 5.23,1.289 7.903,1.579 32.114,3.48 57.222,20.661 79.226,42.42 13.492,13.346 24.969,28.78 36.875,43.655 6.887,8.604 15.463,14.239 25.659,17.695 16.116,5.463 33.036,8.996 46.671,20.273 0.261,0.216 0.624,0.314 1.048,0.343 0.841,1.139 1.832,2.183 2.999,3.084 0.269,0.209 0.551,0.408 0.82,0.616 -5.149,0.535 -10.298,1.09 -15.357,2.016 -10.331,1.89 -20.702,4.297 -30.567,7.834 -28.862,10.354 -39.4,43.636 -22.521,69.181 3.264,4.937 5.826,10.334 9.196,16.385 5.336,7.817 2.672,16.875 5.104,14.827 2.432,-2.049 4.863,-10.466 6.385,-12.832 1.742,-5.386 4.402,-8.666 11.306,-9.437 10.102,-1.131 18.413,-7.45 22.75,-15.235 2.583,-0.742 5.166,-1.489 7.748,-2.231 0.326,0.126 0.648,0.2 0.975,0.195 23.178,-0.322 44.296,8.899 66.32,13.958 17.878,4.104 35.953,8.417 54.162,9.809 35.908,2.746 62.176,-13.93 77.427,-46.716 0.751,-1.612 1.444,-3.252 2.121,-4.9 2.889,-0.122 5.781,-0.159 8.67,-0.073 2.028,0.057 4.052,0.15 6.075,0.277 0.694,0.354 1.392,0.689 2.126,0.824 2.692,0.502 5.304,1.102 7.846,1.783 1.485,0.815 3.068,1.493 4.762,1.966 4.504,1.253 9.225,3.072 13.811,5.312 17.046,9.106 29.756,23.64 38.797,42.905 2.044,4.357 5.193,8.523 8.752,11.779 7.837,7.177 16.038,4.324 18.567,-6.01 0.074,-0.294 0.139,-0.592 0.204,-0.886 0.314,-0.171 0.637,-0.33 0.938,-0.519 1.388,-0.868 2.579,-1.848 3.631,-2.896 3.934,2.061 7.899,4.133 11.882,6.218 l 8.009,-5.006 c 4.071,-7.919 6.699,-16.079 4.443,-25.215 1.158,-0.24 2.293,-0.591 3.398,-1.023 5.242,1.407 10.176,2.13 14.137,-2.607 5.101,-6.096 3.374,-13.149 0.927,-19.805 -1.028,-2.794 -2.571,-5.414 -4.101,-8.213 0.905,-0.607 1.767,-1.276 2.578,-2.011 5.312,0.444 10.481,0.293 13.656,-5.17 2.664,-4.577 0.779,-12.533 -4.333,-17.883 -3.024,-3.155 -6.585,-5.799 -9.912,-8.679 z"
             inkscape:connector-curvature="0" />
        </g>
      </g>
      <g
         id="g3345" />
      <g
         id="g3347" />
      <g
         id="g3349" />
      <g
         id="g3351" />
      <g
         id="g3353" />
      <g
         id="g3355" />
      <g
         id="g3357" />
      <g
         id="g3359" />
      <g
         id="g3361" />
      <g
         id="g3363" />
      <g
         id="g3365" />
      <g
         id="g3367" />
      <g
         id="g3369" />
      <g
         id="g3371" />
      <g
         id="g3373" />
    </g>
  </g>
</svg>
