<?xml version="1.0" encoding="iso-8859-1"?>
<!-- Generator: Adobe Illustrator 16.0.0, SVG Export Plug-In . SVG Version: 6.00 Build 0)  -->
<!DOCTYPE svg PUBLIC "-//W3C//DTD SVG 1.1//EN" "http://www.w3.org/Graphics/SVG/1.1/DTD/svg11.dtd">
<svg version="1.1" id="Capa_1" xmlns="http://www.w3.org/2000/svg" xmlns:xlink="http://www.w3.org/1999/xlink" x="0px" y="0px"
	 width="520.672px" height="520.672px" viewBox="0 0 520.672 520.672" style="enable-background:new 0 0 520.672 520.672;"
	 xml:space="preserve">
<g>
	<g>
		<path d="M513.008,312.04c-1.186-6.541-6.847-14.707-13.072-16.974c-9.706-3.548-26.459-7.603-52.277-7.603
			c-23.983,0-57.863-9.285-87.182-23.304c-4.763-2.267-12.527-2.678-17.203-0.22c-6.569,3.462-14.86,8.597-25.102,16.218
			c-1.626,1.195-3.51,1.778-5.374,1.778c-2.754,0-5.46-1.252-7.239-3.634c-2.974-3.987-2.142-9.639,1.846-12.603
			c6.493-4.82,12.364-8.798,17.682-12.078c4.494-2.782,4.676-7.172,0.497-10.395c-0.86-0.659-1.712-1.338-2.534-2.008
			c-4.103-3.328-10.959-4.312-15.443-1.53c-4.686,2.917-9.993,6.513-15.979,10.959c-1.606,1.186-3.49,1.778-5.364,1.778
			c-2.754,0-5.47-1.262-7.238-3.643c-2.984-3.988-2.152-9.63,1.845-12.604c5.537-4.122,10.615-7.603,15.291-10.566
			c4.466-2.831,7.803-5.595,7.354-6.436c-0.268-0.517-0.535-1.023-0.784-1.54c-1.521-3.185-3.021-6.904-4.514-11.064
			c-1.769-4.982-6.761-7.047-11.245-4.246c-4.542,2.84-9.648,6.312-15.367,10.566c-1.606,1.195-3.49,1.779-5.374,1.779
			c-2.744,0-5.47-1.253-7.24-3.634c-2.964-3.988-2.142-9.64,1.846-12.613c7.909-5.872,14.899-10.48,21.067-14.105
			c4.552-2.677,7.325-8.75,6.12-13.894c-0.373-1.597-0.746-3.213-1.109-4.829c-1.167-5.154-6.044-7.746-10.72-5.288
			c-6.579,3.461-14.889,8.597-25.169,16.247c-1.616,1.195-3.5,1.779-5.364,1.779c-2.754,0-5.46-1.253-7.239-3.634
			c-2.974-3.988-2.142-9.629,1.855-12.604c13.024-9.687,23.61-15.979,32.083-20.024c4.771-2.276,7.994-7.917,7.028-13.11
			c-3.156-16.897-5.643-32.178-7.182-42.123c-1.023-6.56-7.182-11.417-13.58-9.667c-7.965,2.17-18.503,6.397-26.727,14.563
			c-4.714,4.667-7.287,14.889-7.287,21.525v14.267c0,0-21.028,6.761-72.837,6.005c-51.829-0.746-51.829-0.746-51.829-0.746
			s1.807-31.948-15.654-60.75c-3.433-5.67-11.513-7.095-17.222-3.729L48.71,79.135c-5.719,3.366-6.828,10.222-3.539,15.988
			c8.195,14.363,19.316,43.863,6.197,85.24c-8.54,26.995-20.502,44.265-30.753,59.479c39.608,12.546,127.889,49.553,127.889,129.754
			h-18.025c0-70.725-86.856-103.868-119.885-113.918c-7.268,12.794-11.848,26.067-10.29,44.829
			c4.007,48.061,10.021,66.086,10.021,66.086l-0.793,37.39c-0.105,4.781,3.557,9.687,8.205,10.758
			c13.961,3.203,42.936,8.615,68.2,5.374c4.743-0.603,8.53-5.346,8.53-10.137v-1.711c0-4.791,3.863-8.808,8.645-8.989l8.482-0.335
			c4.781-0.19,8.645,3.529,8.645,8.311v5.211c0,4.781,3.71,9.782,8.415,10.672c9.199,1.74,25.178,3.452,43.987-0.105
			c4.695-0.889,8.434-5.785,8.434-10.566v-1.453c0-4.781,3.806-7.918,8.454-6.837c11.341,2.639,31.68,8.118,45.928,16.188
			c4.16,2.343,7.21,8.396,7.21,12.9s3.749,9.084,8.424,10.117c11.103,2.438,30.572,6.082,42.143,4.695
			c4.752-0.564,8.003-6.79,8.003-11.571v-4.466c0-4.781,3.873-8.645,8.654-8.645h2.974c4.781,0,8.654,3.863,8.654,8.645v7.698
			c0,4.781,3.567,10.185,8.176,11.427c9.333,2.554,25.618,5.193,43.72,0.058c4.6-1.3,8.167-6.703,8.167-11.484v-6.178
			c0-4.79,3.873-8.807,8.645-8.979l2.983-0.105c4.781-0.182,8.645,3.548,8.645,8.329v1.463c0,4.781,3.873,8.405,8.597,7.669
			c7.956-1.233,20.062-3.949,30.15-9.802c4.131-2.399,7.048-8.348,7.048-12.498c0-4.141,3.729-8.577,8.329-9.878l9.629-2.754
			c4.6-1.311,8.329,1.491,8.329,6.272v0.718c0,4.781,3.844,8.176,8.511,7.096c12.335-2.889,34.1-10.567,37.303-29.242
			C523.067,372.522,516.642,332.083,513.008,312.04z"/>
	</g>
</g>
<g>
</g>
<g>
</g>
<g>
</g>
<g>
</g>
<g>
</g>
<g>
</g>
<g>
</g>
<g>
</g>
<g>
</g>
<g>
</g>
<g>
</g>
<g>
</g>
<g>
</g>
<g>
</g>
<g>
</g>
</svg>
