<?xml version="1.0" encoding="UTF-8" standalone="no"?>
<!-- Created with Inkscape (http://www.inkscape.org/) -->

<svg
   xmlns:osb="http://www.openswatchbook.org/uri/2009/osb"
   xmlns:dc="http://purl.org/dc/elements/1.1/"
   xmlns:cc="http://creativecommons.org/ns#"
   xmlns:rdf="http://www.w3.org/1999/02/22-rdf-syntax-ns#"
   xmlns:svg="http://www.w3.org/2000/svg"
   xmlns="http://www.w3.org/2000/svg"
   xmlns:sodipodi="http://sodipodi.sourceforge.net/DTD/sodipodi-0.dtd"
   xmlns:inkscape="http://www.inkscape.org/namespaces/inkscape"
   width="210mm"
   height="297mm"
   viewBox="0 0 744.09448819 1052.3622047"
   id="svg2"
   version="1.1"
   inkscape:version="0.91 r13725"
   sodipodi:docname="RANDO.svg">
  <defs
     id="defs4">
    <linearGradient
       id="linearGradient4201"
       osb:paint="solid">
      <stop
         style="stop-color:#ff0000;stop-opacity:1;"
         offset="0"
         id="stop4203" />
    </linearGradient>
  </defs>
  <sodipodi:namedview
     id="base"
     pagecolor="#ffffff"
     bordercolor="#666666"
     borderopacity="1.0"
     inkscape:pageopacity="0.0"
     inkscape:pageshadow="2"
     inkscape:zoom="0.35"
     inkscape:cx="-120.71429"
     inkscape:cy="520"
     inkscape:document-units="px"
     inkscape:current-layer="layer1"
     showgrid="false"
     inkscape:window-width="1855"
     inkscape:window-height="1056"
     inkscape:window-x="65"
     inkscape:window-y="24"
     inkscape:window-maximized="1" />
  <metadata
     id="metadata7">
    <rdf:RDF>
      <cc:Work
         rdf:about="">
        <dc:format>image/svg+xml</dc:format>
        <dc:type
           rdf:resource="http://purl.org/dc/dcmitype/StillImage" />
        <dc:title></dc:title>
      </cc:Work>
    </rdf:RDF>
  </metadata>
  <g
     inkscape:label="Calque 1"
     inkscape:groupmode="layer"
     id="layer1">
    <ellipse
       style="fill:#e3dbdb;fill-opacity:1;stroke:none;stroke-opacity:1"
       id="path3336"
       cx="365.71429"
       cy="612.36218"
       rx="214.28572"
       ry="211.42857" />
    <g
       id="g4269"
       transform="matrix(0.47320889,0,0,0.5356665,265.37806,468.62421)">
      <g
         id="g4227">
        <g
           id="g4229">
          <path
             id="path4231"
             d="m 513.008,312.04 c -1.186,-6.541 -6.847,-14.707 -13.072,-16.974 -9.706,-3.548 -26.459,-7.603 -52.277,-7.603 -23.983,0 -57.863,-9.285 -87.182,-23.304 -4.763,-2.267 -12.527,-2.678 -17.203,-0.22 -6.569,3.462 -14.86,8.597 -25.102,16.218 -1.626,1.195 -3.51,1.778 -5.374,1.778 -2.754,0 -5.46,-1.252 -7.239,-3.634 -2.974,-3.987 -2.142,-9.639 1.846,-12.603 6.493,-4.82 12.364,-8.798 17.682,-12.078 4.494,-2.782 4.676,-7.172 0.497,-10.395 -0.86,-0.659 -1.712,-1.338 -2.534,-2.008 -4.103,-3.328 -10.959,-4.312 -15.443,-1.53 -4.686,2.917 -9.993,6.513 -15.979,10.959 -1.606,1.186 -3.49,1.778 -5.364,1.778 -2.754,0 -5.47,-1.262 -7.238,-3.643 -2.984,-3.988 -2.152,-9.63 1.845,-12.604 5.537,-4.122 10.615,-7.603 15.291,-10.566 4.466,-2.831 7.803,-5.595 7.354,-6.436 -0.268,-0.517 -0.535,-1.023 -0.784,-1.54 -1.521,-3.185 -3.021,-6.904 -4.514,-11.064 -1.769,-4.982 -6.761,-7.047 -11.245,-4.246 -4.542,2.84 -9.648,6.312 -15.367,10.566 -1.606,1.195 -3.49,1.779 -5.374,1.779 -2.744,0 -5.47,-1.253 -7.24,-3.634 -2.964,-3.988 -2.142,-9.64 1.846,-12.613 7.909,-5.872 14.899,-10.48 21.067,-14.105 4.552,-2.677 7.325,-8.75 6.12,-13.894 -0.373,-1.597 -0.746,-3.213 -1.109,-4.829 -1.167,-5.154 -6.044,-7.746 -10.72,-5.288 -6.579,3.461 -14.889,8.597 -25.169,16.247 -1.616,1.195 -3.5,1.779 -5.364,1.779 -2.754,0 -5.46,-1.253 -7.239,-3.634 -2.974,-3.988 -2.142,-9.629 1.855,-12.604 13.024,-9.687 23.61,-15.979 32.083,-20.024 4.771,-2.276 7.994,-7.917 7.028,-13.11 -3.156,-16.897 -5.643,-32.178 -7.182,-42.123 -1.023,-6.56 -7.182,-11.417 -13.58,-9.667 -7.965,2.17 -18.503,6.397 -26.727,14.563 -4.714,4.667 -7.287,14.889 -7.287,21.525 l 0,14.267 c 0,0 -21.028,6.761 -72.837,6.005 -51.829,-0.746 -51.829,-0.746 -51.829,-0.746 0,0 1.807,-31.948 -15.654,-60.75 C 80.861,66.365 72.781,64.94 67.072,68.306 L 48.71,79.135 c -5.719,3.366 -6.828,10.222 -3.539,15.988 8.195,14.363 19.316,43.863 6.197,85.24 -8.54,26.995 -20.502,44.265 -30.753,59.479 39.608,12.546 127.889,49.553 127.889,129.754 l -18.025,0 c 0,-70.725 -86.856,-103.868 -119.885,-113.918 -7.268,12.794 -11.848,26.067 -10.29,44.829 4.007,48.061 10.021,66.086 10.021,66.086 l -0.793,37.39 c -0.105,4.781 3.557,9.687 8.205,10.758 13.961,3.203 42.936,8.615 68.2,5.374 4.743,-0.603 8.53,-5.346 8.53,-10.137 l 0,-1.711 c 0,-4.791 3.863,-8.808 8.645,-8.989 l 8.482,-0.335 c 4.781,-0.19 8.645,3.529 8.645,8.311 l 0,5.211 c 0,4.781 3.71,9.782 8.415,10.672 9.199,1.74 25.178,3.452 43.987,-0.105 4.695,-0.889 8.434,-5.785 8.434,-10.566 l 0,-1.453 c 0,-4.781 3.806,-7.918 8.454,-6.837 11.341,2.639 31.68,8.118 45.928,16.188 4.16,2.343 7.21,8.396 7.21,12.9 0,4.504 3.749,9.084 8.424,10.117 11.103,2.438 30.572,6.082 42.143,4.695 4.752,-0.564 8.003,-6.79 8.003,-11.571 l 0,-4.466 c 0,-4.781 3.873,-8.645 8.654,-8.645 l 2.974,0 c 4.781,0 8.654,3.863 8.654,8.645 l 0,7.698 c 0,4.781 3.567,10.185 8.176,11.427 9.333,2.554 25.618,5.193 43.72,0.058 4.6,-1.3 8.167,-6.703 8.167,-11.484 l 0,-6.178 c 0,-4.79 3.873,-8.807 8.645,-8.979 l 2.983,-0.105 c 4.781,-0.182 8.645,3.548 8.645,8.329 l 0,1.463 c 0,4.781 3.873,8.405 8.597,7.669 7.956,-1.233 20.062,-3.949 30.15,-9.802 4.131,-2.399 7.048,-8.348 7.048,-12.498 0,-4.141 3.729,-8.577 8.329,-9.878 l 9.629,-2.754 c 4.6,-1.311 8.329,1.491 8.329,6.272 l 0,0.718 c 0,4.781 3.844,8.176 8.511,7.096 12.335,-2.889 34.1,-10.567 37.303,-29.242 3.316,-19.327 -3.109,-59.766 -6.743,-79.809 z"
             inkscape:connector-curvature="0" />
        </g>
      </g>
      <g
         id="g4233" />
      <g
         id="g4235" />
      <g
         id="g4237" />
      <g
         id="g4239" />
      <g
         id="g4241" />
      <g
         id="g4243" />
      <g
         id="g4245" />
      <g
         id="g4247" />
      <g
         id="g4249" />
      <g
         id="g4251" />
      <g
         id="g4253" />
      <g
         id="g4255" />
      <g
         id="g4257" />
      <g
         id="g4259" />
      <g
         id="g4261" />
    </g>
  </g>
</svg>
