<?xml version="1.0" encoding="utf-8"?>
<!-- Generator: Adobe Illustrator 18.0.0, SVG Export Plug-In . SVG Version: 6.00 Build 0)  -->
<!DOCTYPE svg PUBLIC "-//W3C//DTD SVG 1.1//EN" "http://www.w3.org/Graphics/SVG/1.1/DTD/svg11.dtd">
<svg version="1.1" id="Capa_1" xmlns="http://www.w3.org/2000/svg" xmlns:xlink="http://www.w3.org/1999/xlink" x="0px" y="0px"
	 viewBox="220.5 59.2 1153.1 1059" enable-background="new 220.5 59.2 1153.1 1059" xml:space="preserve">
<g>
	<path fill="#9D6BC9" d="M1129.3,616.9V447.7c0.8-134.7-89.7-224.1-167.5-259.6c-18.6-8.5-38.4-15.6-58.8-21.3v-1.7
		c0-58.4-47.5-106-106-106c-58.4,0-106,47.5-106,106v3.5c-18.1,5.3-35.6,11.9-52.3,19.6c-85.8,39.6-172.8,135-173.5,259.2v169.4
		c0,117-41.3,217.3-122.7,298.2c-8.1,8.1-11.1,20-7.6,31c3.4,11,12.7,19,24,21l178.6,30.9c31,5.4,59.7,9.8,87.5,13.6
		c17.1,31.2,41.5,57.4,71.1,76.1c31.6,20,67.7,30.5,104.4,30.5c36.7,0,72.8-10.6,104.4-30.6c29.6-18.7,54-44.9,71.1-76.1
		c27.7-3.8,56.2-8.2,87-13.5l178.6-30.8c11.4-1.9,20.6-10,24.1-21c3.5-11,0.6-22.9-7.6-31C1172.6,830.2,1129.3,729.9,1129.3,616.9z
		 M912.8,957.2l-0.7,0.1c-11.3,1.1-22.8,2.1-35.1,3c-2.1,0.1-4.3,0.3-6.4,0.4c-10.2,0.7-20.1,1.2-29.6,1.5c-0.8,0-1.7,0.1-2.5,0.1
		c-1.2,0.1-2.3,0.1-3.5,0.1c-11.6,0.4-23.3,0.6-34.8,0.6c-11.3,0-22.9-0.2-34.3-0.6c-1,0-2-0.1-3-0.1c-1.1,0-2.2-0.1-3.2-0.1
		c-10.7-0.4-20.2-0.9-29.2-1.5c-2.3-0.1-4.6-0.3-7-0.5c-12.3-0.9-23.4-1.8-34-2.9l-1.3-0.1c-12.6-1.3-25.6-2.7-39.6-4.5l-0.7-0.1
		h-0.2c-29.9-3.8-62.5-8.8-99.6-15.1l-123.9-21.4c68-84.7,102.5-185.2,102.5-299.2l0-169.2c0.6-97.1,69.7-172.3,137.9-203.7
		c19.7-9.1,40.8-16.2,62.8-21.3c0.3,0,0.7-0.1,1-0.2l0.3-0.1c23.3-5.2,47.4-7.9,71.7-7.9c22.3,0,44.5,2.2,66,6.6
		c0.7,0.1,1.3,0.2,2,0.3c23.7,5,46.7,12.6,68.2,22.4c66,30.2,132.3,104.8,131.6,203.7v169.4c0,109.2,37.3,212.2,108.2,299.2
		l-123.7,21.3c-36.4,6.3-68.9,11.2-99.3,15.1l-0.9,0.1C939,954.4,925.7,955.9,912.8,957.2z M892.2,1020.8
		c-25.4,22.9-58.1,36-91.7,36c-33.6,0-66.3-13.1-91.6-36c31.7,2.5,61.8,3.8,91.4,3.8C830.1,1024.6,860.4,1023.3,892.2,1020.8z
		 M753.4,155.7c4.4-20.1,22.3-35.1,43.6-35.1c21.1,0,38.9,14.7,43.5,34.5C811.4,151.9,782.2,152.2,753.4,155.7z"/>
	<path fill="#9D6BC9" d="M922.7,273.6c-37.3-17.1-79.7-26.1-122.5-26.1c-42.8,0-85.1,9-122.1,26.1
		c-43.9,20.2-118.2,79.5-118.8,173.6c-0.1,16.9,13.6,30.7,30.6,30.9h0.1c16.8,0,30.6-13.7,30.7-30.5c0.4-63.2,52.5-104.1,83.2-118.3
		c29.2-13.5,62.5-20.6,96.4-20.6c33.9,0,67.5,7.1,96.9,20.6c4,1.8,8.3,2.8,12.8,2.8c0,0,0,0,0,0c12,0,22.9-7,27.9-17.9
		c3.4-7.5,3.7-15.8,0.8-23.5C935.9,283.1,930.2,277,922.7,273.6z"/>
	<path fill="#9D6BC9" d="M331.1,726.3c-31.8-31.8-49.3-74.1-49.3-119.2c0-45.1,17.5-87.4,49.3-119.2c11.9-12,11.9-31.4,0-43.4
		c-5.8-5.8-13.5-9-21.7-9c-8.2,0-15.9,3.2-21.7,9c-43.4,43.4-67.2,101.1-67.2,162.5c0,61.5,23.9,119.2,67.2,162.5
		c5.8,5.8,13.5,9,21.7,9c8.2,0,15.9-3.2,21.7-9C343.1,757.7,343.1,738.3,331.1,726.3z"/>
	<path fill="#9D6BC9" d="M367,726.8c5.8,5.8,13.5,9,21.7,9c8.2,0,15.9-3.2,21.7-9c5.8-5.8,9-13.5,9-21.7c0-8.2-3.2-15.9-9-21.7
		c-21-21-32.6-49.1-32.6-78.9c0-29.8,11.6-57.9,32.6-78.9c5.8-5.8,9-13.5,9-21.7c0-8.2-3.2-15.9-9-21.7c-5.8-5.8-13.5-9-21.7-9
		c-8.2,0-15.9,3.2-21.7,9c-32.6,32.6-50.6,76.1-50.6,122.3C316.4,650.8,334.4,694.2,367,726.8z"/>
	<path fill="#9D6BC9" d="M1306.3,444.6c-5.8-5.8-13.5-9-21.7-9s-15.9,3.2-21.7,9c-5.8,5.8-9,13.5-9,21.7c0,8.2,3.2,15.9,9,21.7
		c31.8,31.8,49.3,74.1,49.3,119.2c0,45.1-17.5,87.4-49.3,119.2c-12,12-12,31.4,0,43.4c5.8,5.8,13.5,9,21.7,9c8.2,0,15.9-3.2,21.7-9
		c43.4-43.3,67.2-101.1,67.2-162.5C1373.6,545.7,1349.7,488,1306.3,444.6z"/>
	<path fill="#9D6BC9" d="M1174.7,705.2c0,8.2,3.2,15.9,9,21.7c5.8,5.8,13.5,9,21.7,9c8.2,0,15.9-3.2,21.7-9
		c32.6-32.6,50.6-76.1,50.6-122.3c0-46.3-18-89.7-50.6-122.3c-5.8-5.8-13.5-9-21.7-9c-8.2,0-15.9,3.2-21.7,9c-5.8,5.8-9,13.5-9,21.7
		s3.2,15.9,9,21.7c21,21,32.6,49.1,32.6,78.9s-11.6,57.9-32.6,78.9C1177.9,689.3,1174.7,697,1174.7,705.2z"/>
</g>
</svg>
