<?xml version="1.0" encoding="utf-8"?>
<!-- Generator: Adobe Illustrator 17.0.0, SVG Export Plug-In . SVG Version: 6.00 Build 0)  -->
<!DOCTYPE svg PUBLIC "-//W3C//DTD SVG 1.1//EN" "http://www.w3.org/Graphics/SVG/1.1/DTD/svg11.dtd">
<svg version="1.1" id="Calque_1" xmlns="http://www.w3.org/2000/svg" xmlns:xlink="http://www.w3.org/1999/xlink" x="0px" y="0px"
	 width="319.087px" height="143.792px" viewBox="0 0 319.087 143.792" enable-background="new 0 0 319.087 143.792"
	 xml:space="preserve">
<g>
	<g>
		<path fill="#EE6B4D" d="M162.204,55.434c-15.392,5.242-23.649,22.029-18.407,37.421c5.242,15.392,22.029,23.649,37.421,18.407
			s23.649-22.029,18.407-37.421C194.383,58.449,177.595,50.192,162.204,55.434z"/>
	</g>
</g>
<g>
	<g>
		<path fill="#383933" d="M215.22,84.088c1.184-5.57,1.555-11.215,1.107-16.845l5.465-1.861c5.696-1.94,8.752-8.153,6.812-13.849
			l-2.396-7.033c-1.94-5.696-8.153-8.752-13.849-6.812l-5.465,1.861c-3.082-4.732-6.821-8.977-11.159-12.667l2.558-5.201
			c2.656-5.399,0.424-11.953-4.976-14.609l-6.667-3.279c-2.615-1.286-5.576-1.478-8.335-0.538c-2.759,0.94-4.988,2.898-6.274,5.514
			l-2.558,5.2c-5.57-1.184-11.215-1.555-16.845-1.107l-1.861-5.465c-1.94-5.696-8.153-8.752-13.849-6.812l-7.033,2.395
			c-5.696,1.94-8.752,8.153-6.812,13.849l1.861,5.465c-4.732,3.082-8.977,6.821-12.667,11.159l-5.201-2.558
			c-2.615-1.286-5.576-1.478-8.335-0.538c-2.759,0.94-4.988,2.898-6.274,5.514l-3.28,6.668c-2.656,5.4-0.424,11.954,4.976,14.609
			l5.201,2.558c-1.184,5.57-1.555,11.215-1.107,16.845l-5.465,1.861c-5.696,1.94-8.752,8.153-6.812,13.849l2.395,7.033
			c1.94,5.696,8.153,8.752,13.849,6.812l5.465-1.861c3.082,4.732,6.821,8.977,11.159,12.667l-2.558,5.201
			c-2.656,5.4-0.424,11.953,4.976,14.609l6.667,3.28c5.4,2.656,11.953,0.424,14.61-4.976l2.558-5.2
			c5.57,1.184,11.215,1.555,16.845,1.108l1.861,5.465c1.94,5.696,8.153,8.752,13.849,6.812l7.033-2.396
			c5.696-1.94,8.752-8.153,6.812-13.849l-1.861-5.465c4.732-3.082,8.977-6.821,12.667-11.159l5.2,2.558
			c5.4,2.656,11.954,0.424,14.609-4.976l3.28-6.668c2.656-5.4,0.424-11.953-4.976-14.609L215.22,84.088z M219.146,98.18l-3.28,6.668
			c-0.96,1.952-3.331,2.76-5.284,1.8l-7.693-3.784c-1.487-0.73-3.282-0.314-4.294,0.996c-4.129,5.346-9.143,9.762-14.904,13.127
			c-1.43,0.835-2.075,2.562-1.541,4.13l2.756,8.093c0.702,2.06-0.404,4.307-2.464,5.009l-7.033,2.395
			c-2.06,0.702-4.307-0.404-5.009-2.464l-2.756-8.093c-0.534-1.568-2.099-2.543-3.741-2.331c-6.617,0.852-13.284,0.414-19.818-1.301
			c-0.682-0.179-1.376-0.143-2.006,0.071c-0.851,0.29-1.584,0.906-2.004,1.76l-3.784,7.692c-0.962,1.953-3.332,2.761-5.284,1.8
			l-6.667-3.28c-1.953-0.961-2.76-3.331-1.8-5.284l3.784-7.693c0.731-1.486,0.314-3.282-0.997-4.294
			c-5.346-4.129-9.762-9.143-13.126-14.904c-0.835-1.431-2.562-2.075-4.13-1.541l-8.093,2.756c-2.06,0.702-4.307-0.404-5.009-2.464
			l-2.395-7.033c-0.702-2.06,0.404-4.307,2.464-5.009l8.093-2.756c1.568-0.534,2.543-2.099,2.331-3.741
			c-0.852-6.617-0.413-13.284,1.301-19.818c0.421-1.602-0.345-3.278-1.831-4.009l-7.693-3.784c-1.953-0.961-2.76-3.331-1.8-5.284
			l3.279-6.667c0.465-0.946,1.271-1.654,2.269-1.994c0.998-0.34,2.069-0.271,3.015,0.195l7.693,3.784
			c1.486,0.731,3.283,0.314,4.294-0.996c4.129-5.346,9.143-9.762,14.904-13.126c1.43-0.835,2.075-2.562,1.541-4.13l-2.756-8.093
			c-0.702-2.06,0.404-4.307,2.464-5.009l7.033-2.395c2.06-0.702,4.307,0.404,5.009,2.464l2.756,8.093
			c0.534,1.568,2.099,2.543,3.741,2.331c6.617-0.852,13.284-0.414,19.818,1.301c1.602,0.42,3.278-0.346,4.009-1.832l3.784-7.692
			c0.465-0.946,1.271-1.654,2.269-1.994s2.068-0.271,3.015,0.195l6.667,3.279c1.953,0.961,2.76,3.331,1.8,5.284l-3.784,7.693
			c-0.731,1.486-0.314,3.282,0.997,4.294c5.346,4.129,9.763,9.144,13.126,14.904c0.836,1.431,2.562,2.075,4.131,1.54l8.092-2.756
			c2.06-0.702,4.307,0.404,5.009,2.464l2.395,7.033c0.702,2.06-0.404,4.307-2.464,5.009l-8.092,2.756
			c-1.568,0.534-2.543,2.099-2.332,3.742c0.852,6.617,0.414,13.284-1.3,19.817c-0.421,1.602,0.345,3.278,1.831,4.009l7.693,3.784
			C219.298,93.857,220.106,96.227,219.146,98.18z"/>
	</g>
	<g>
		<path fill="#383933" d="M147.785,43.982c-15.392,5.242-23.649,22.029-18.407,37.421c5.242,15.392,22.029,23.649,37.421,18.407
			s23.649-22.029,18.407-37.421C179.963,46.997,163.176,38.74,147.785,43.982z M164.553,93.216
			c-11.756,4.004-24.578-2.303-28.581-14.059s2.303-24.578,14.059-28.581c11.756-4.004,24.577,2.303,28.581,14.059
			S176.309,89.212,164.553,93.216z"/>
	</g>
</g>
<g>
	
		<line fill="none" stroke="#383933" stroke-width="7" stroke-linecap="round" stroke-miterlimit="10" x1="3.5" y1="11.291" x2="59.074" y2="11.433"/>
	
		<line fill="none" stroke="#383933" stroke-width="7" stroke-linecap="round" stroke-miterlimit="10" x1="72.741" y1="11.467" x2="80.907" y2="11.488"/>
</g>
<g>
	
		<line fill="none" stroke="#383933" stroke-width="7" stroke-linecap="round" stroke-miterlimit="10" x1="315.587" y1="129.569" x2="260.013" y2="129.427"/>
	
		<line fill="none" stroke="#383933" stroke-width="7" stroke-linecap="round" stroke-miterlimit="10" x1="246.347" y1="129.393" x2="238.18" y2="129.372"/>
</g>
</svg>
