<?xml version="1.0" encoding="utf-8"?>
<!-- Generator: Adobe Illustrator 17.0.0, SVG Export Plug-In . SVG Version: 6.00 Build 0)  -->
<!DOCTYPE svg PUBLIC "-//W3C//DTD SVG 1.1//EN" "http://www.w3.org/Graphics/SVG/1.1/DTD/svg11.dtd">
<svg version="1.1" id="Calque_1" xmlns="http://www.w3.org/2000/svg" xmlns:xlink="http://www.w3.org/1999/xlink" x="0px" y="0px"
	 width="476.048px" height="462.889px" viewBox="0 0 476.048 462.889" enable-background="new 0 0 476.048 462.889"
	 xml:space="preserve">
<g>
	<path fill="#B4CC1B" d="M446.634,144.278c-19.608-33.596-46.205-60.194-79.798-79.8C333.238,44.871,296.559,35.07,256.773,35.07
		c-39.781,0-76.472,9.804-110.063,29.408c-33.596,19.605-60.192,46.204-79.8,79.8c-19.605,33.595-29.408,70.281-29.408,110.057
		c0,47.78,13.94,90.745,41.827,128.906c27.884,38.164,63.906,64.572,108.063,79.227c5.14,0.954,8.945,0.283,11.419-1.996
		c2.475-2.282,3.711-5.14,3.711-8.562c0-0.571-0.049-5.708-0.144-15.417c-0.098-9.709-0.144-18.179-0.144-25.406l-6.567,1.136
		c-4.187,0.767-9.469,1.092-15.846,1c-6.374-0.089-12.991-0.757-19.842-1.999c-6.854-1.231-13.229-4.086-19.13-8.559
		c-5.898-4.473-10.085-10.328-12.56-17.556l-2.855-6.57c-1.903-4.374-4.899-9.233-8.992-14.559
		c-4.093-5.331-8.232-8.945-12.419-10.848l-1.999-1.431c-1.332-0.951-2.568-2.098-3.711-3.429c-1.142-1.331-1.997-2.663-2.568-3.997
		c-0.572-1.335-0.098-2.43,1.427-3.289s4.281-1.276,8.28-1.276l5.708,0.853c3.807,0.763,8.516,3.042,14.133,6.851
		c5.614,3.806,10.229,8.754,13.846,14.842c4.38,7.806,9.657,13.754,15.846,17.847c6.184,4.093,12.419,6.136,18.699,6.136
		s11.704-0.476,16.274-1.423c4.565-0.952,8.848-2.383,12.847-4.285c1.713-12.758,6.377-22.559,13.988-29.41
		c-10.848-1.14-20.601-2.857-29.264-5.14c-8.658-2.286-17.605-5.996-26.835-11.14c-9.235-5.137-16.896-11.516-22.985-19.126
		c-6.09-7.614-11.088-17.61-14.987-29.979c-3.901-12.374-5.852-26.648-5.852-42.826c0-23.035,7.52-42.637,22.557-58.817
		c-7.044-17.318-6.379-36.732,1.997-58.24c5.52-1.715,13.706-0.428,24.554,3.853c10.85,4.283,18.794,7.952,23.84,10.994
		c5.046,3.041,9.089,5.618,12.135,7.708c17.705-4.947,35.976-7.421,54.818-7.421s37.117,2.474,54.823,7.421l10.849-6.849
		c7.419-4.57,16.18-8.758,26.262-12.565c10.088-3.805,17.802-4.853,23.134-3.138c8.562,21.509,9.325,40.922,2.279,58.24
		c15.036,16.18,22.559,35.787,22.559,58.817c0,16.178-1.958,30.497-5.853,42.966c-3.9,12.471-8.941,22.457-15.125,29.979
		c-6.191,7.521-13.901,13.85-23.131,18.986c-9.232,5.14-18.182,8.85-26.84,11.136c-8.662,2.286-18.415,4.004-29.263,5.146
		c9.894,8.562,14.842,22.077,14.842,40.539v60.237c0,3.422,1.19,6.279,3.572,8.562c2.379,2.279,6.136,2.95,11.276,1.995
		c44.163-14.653,80.185-41.062,108.068-79.226c27.88-38.161,41.825-81.126,41.825-128.906
		C476.038,214.556,466.23,177.873,446.634,144.278z"/>
</g>
<g>
	<g>
		<g>
			<path fill="#383933" d="M160.577,439.819c-1.61,0-3.357-0.173-5.191-0.513l-0.664-0.17
				c-45.124-14.973-82.394-42.293-110.836-81.222C15.429,318.976,1,274.514,1,225.765c0-40.578,10.146-78.539,30.158-112.829
				c20-34.27,47.515-61.784,81.778-81.778C147.224,11.146,185.187,1,225.771,1c40.581,0,78.545,10.146,112.835,30.158
				c34.263,19.997,61.776,47.511,81.776,81.778c20.006,34.298,30.154,72.256,30.164,112.82c0,48.741-14.429,93.203-42.884,132.152
				c-28.442,38.93-65.714,66.25-110.778,81.202l-0.661,0.172c-1.898,0.355-3.642,0.528-5.247,0.528
				c-4.503,0-8.171-1.326-10.902-3.942c-3.447-3.304-5.269-7.639-5.269-12.535v-60.237c0-16.708-4.354-28.948-12.941-36.381
				l-9.591-8.3l12.615-1.328c10.498-1.105,20.065-2.785,28.435-4.993c8.188-2.162,16.79-5.736,25.567-10.624
				c8.584-4.776,15.838-10.724,21.561-17.677c5.704-6.938,10.456-16.4,14.123-28.124c3.717-11.901,5.602-25.806,5.602-41.325
				c0-21.486-7.095-40.016-21.088-55.074l-2.386-2.569l1.32-3.248c6.159-15.14,5.739-32.428-1.245-51.394
				c-0.507-0.048-1.042-0.072-1.6-0.072c-4.004,0-9.23,1.206-15.533,3.583c-9.729,3.673-18.247,7.745-25.318,12.102l-12.862,8.12
				l-2.352-0.657c-17.143-4.79-35.09-7.218-53.343-7.218c-18.25,0-36.195,2.429-53.337,7.218l-2.475,0.691l-2.117-1.454
				c-3.053-2.094-7.044-4.628-11.862-7.532c-4.791-2.888-12.536-6.451-23.021-10.589c-7.068-2.789-12.838-4.204-17.148-4.204
				c-0.455,0-0.896,0.017-1.315,0.049c-6.802,18.942-7.13,36.217-0.973,51.354l1.321,3.248l-2.388,2.568
				c-13.991,15.055-21.085,33.584-21.085,55.073c0,15.541,1.883,29.393,5.598,41.171c3.677,11.662,8.399,21.15,14.037,28.198
				c5.616,7.02,12.804,12.993,21.362,17.755c8.777,4.891,17.379,8.467,25.565,10.629c8.375,2.207,17.942,3.885,28.435,4.987
				l12.289,1.291l-9.184,8.267c-6.58,5.924-10.69,14.689-12.217,26.054l-0.396,2.954l-2.692,1.281
				c-4.382,2.085-9.121,3.667-14.086,4.702c-4.924,1.021-10.777,1.539-17.397,1.539c-7.354,0-14.667-2.371-21.734-7.049
				c-6.876-4.548-12.79-11.173-17.578-19.69c-3.169-5.319-7.266-9.712-12.165-13.033c-4.922-3.338-8.971-5.354-12.034-5.992
				l-5.117-0.762c-0.74,0.005-1.421,0.027-2.04,0.065c0.704,0.751,1.442,1.403,2.203,1.946l1.597,1.143
				c4.817,2.321,9.523,6.446,13.989,12.264c4.338,5.644,7.593,10.931,9.674,15.715l2.987,6.91
				c2.161,6.304,5.654,11.195,10.708,15.026c5.177,3.926,10.821,6.459,16.778,7.529c6.545,1.186,12.919,1.829,18.945,1.912
				c0.666,0.01,1.32,0.015,1.96,0.015c5.155,0,9.468-0.312,12.82-0.925l13.057-2.258v6.532c0,7.376,0.049,15.904,0.145,25.35
				c0.112,11.631,0.144,14.957,0.144,15.473c0,4.941-1.896,9.3-5.483,12.606C168.747,438.517,165.06,439.819,160.577,439.819z
				 M157.748,428.554c1.035,0.176,1.987,0.266,2.829,0.266c1.656,0,2.802-0.314,3.504-0.962c1.341-1.235,1.938-2.629,1.938-4.518
				c0-0.633-0.072-8.121-0.144-15.363c-0.068-6.795-0.113-13.155-0.133-18.928l-0.141,0.024c-4.021,0.735-8.859,1.094-14.782,1.094
				c-0.68,0-1.372-0.004-2.08-0.014c-6.637-0.093-13.616-0.795-20.745-2.087c-7.674-1.38-14.898-4.605-21.472-9.589
				c-6.708-5.088-11.545-11.81-14.378-19.979l-2.758-6.338c-1.722-3.958-4.518-8.467-8.31-13.399
				c-3.517-4.582-6.993-7.674-10.333-9.192l-0.489-0.222l-2.437-1.745c-1.666-1.188-3.241-2.641-4.681-4.316
				c-1.503-1.752-2.664-3.575-3.453-5.42c-1.675-3.906-0.154-8.023,3.784-10.242c2.403-1.354,5.893-1.983,10.98-1.983l0.74,0.053
				l6,0.898c4.629,0.926,9.908,3.441,16.188,7.699c6.259,4.245,11.47,9.825,15.486,16.586l0.061,0.103
				c3.937,7.017,8.675,12.384,14.092,15.967c5.237,3.466,10.508,5.223,15.665,5.223c5.868,0,10.969-0.44,15.158-1.309
				c3.117-0.649,6.139-1.563,8.99-2.719c1.456-8.259,4.197-15.451,8.159-21.411c-7.115-1.056-13.79-2.4-19.864-4.001
				c-9.077-2.396-18.535-6.317-28.11-11.654c-9.812-5.459-18.089-12.354-24.603-20.493c-6.49-8.116-11.853-18.802-15.938-31.763
				c-4.051-12.852-6.105-27.816-6.105-44.479c0-23.143,7.311-43.327,21.73-60c-6.221-17.764-5.146-37.628,3.198-59.053l0.962-2.47
				l2.531-0.787c2.099-0.652,4.459-0.982,7.017-0.982c5.78,0,12.711,1.626,21.188,4.972c11.054,4.363,19.351,8.198,24.66,11.399
				c3.959,2.385,7.414,4.554,10.279,6.45c17.355-4.613,35.465-6.952,53.834-6.952c18.406,0,36.55,2.348,53.935,6.978l8.801-5.556
				c7.706-4.747,16.873-9.139,27.256-13.06c7.656-2.887,14.009-4.291,19.423-4.291c2.677,0,5.146,0.357,7.339,1.063l2.467,0.793
				l0.958,2.409c8.535,21.44,9.71,41.318,3.495,59.09c14.422,16.677,21.733,36.86,21.733,60c0,16.633-2.054,31.64-6.104,44.606
				c-4.091,13.081-9.516,23.79-16.125,31.831c-6.604,8.022-14.916,14.852-24.706,20.3c-9.579,5.334-19.037,9.253-28.111,11.647
				c-6.019,1.589-12.641,2.927-19.704,3.982c6.226,9.213,9.38,21.443,9.38,36.385v60.237c0,1.931,0.579,3.347,1.879,4.593
				c0.604,0.579,1.743,0.885,3.292,0.885c0.835,0,1.783-0.089,2.818-0.266c42.679-14.241,78-40.188,104.985-77.125
				c27.051-37.026,40.767-79.305,40.767-125.662c-0.01-38.592-9.654-74.686-28.665-107.278
				c-19.033-32.609-45.215-58.792-77.819-77.821C300.475,21.642,264.377,12,225.771,12c-38.609,0-74.707,9.642-107.29,28.659
				C85.875,59.686,59.691,85.868,40.658,118.48C21.643,151.065,12,187.161,12,225.765c0,46.366,13.716,88.643,40.768,125.661
				C79.753,388.36,115.072,414.31,157.748,428.554z"/>
			<path fill="#FFFFFF" d="M225.771,2c40.401,0,78.195,10.101,112.331,30.021c34.112,19.909,61.505,47.302,81.417,81.418
				c19.915,34.143,30.018,71.931,30.027,112.316c0,48.523-14.363,92.787-42.691,131.562
				c-28.317,38.759-65.423,65.958-110.285,80.843l-0.595,0.152c-1.774,0.33-3.457,0.497-4.999,0.497c0,0,0,0-0.001,0
				c-4.235,0-7.671-1.233-10.21-3.665c-3.245-3.11-4.96-7.195-4.96-11.813v-60.237c0-17.012-4.471-29.506-13.287-37.137
				l-7.847-6.791l10.321-1.087c10.55-1.11,20.168-2.8,28.585-5.021c8.269-2.184,16.948-5.789,25.799-10.717
				c8.694-4.838,16.044-10.865,21.847-17.915c5.786-7.038,10.6-16.615,14.305-28.461c3.747-11.998,5.647-26.003,5.647-41.624
				c0-21.747-7.185-40.505-21.355-55.754l-1.952-2.102l1.081-2.657c6.321-15.539,5.833-33.256-1.448-52.694
				c-0.723-0.099-1.498-0.149-2.323-0.149c-4.112,0-9.477,1.23-15.886,3.648c-9.786,3.695-18.363,7.795-25.49,12.186l-12.496,7.889
				l-1.924-0.538c-17.23-4.814-35.269-7.255-53.612-7.255c-18.341,0-36.377,2.441-53.606,7.255l-2.024,0.565l-1.732-1.189
				c-3.068-2.105-7.076-4.65-11.912-7.564c-4.837-2.916-12.632-6.503-23.17-10.663c-7.18-2.833-13.104-4.273-17.516-4.273
				c-0.721,0-1.401,0.038-2.041,0.116c-7.097,19.416-7.494,37.124-1.174,52.664l1.081,2.657l-1.953,2.102
				c-14.168,15.246-21.353,34.004-21.353,55.754c0,15.642,1.898,29.595,5.644,41.472c3.714,11.78,8.494,21.376,14.21,28.522
				c5.698,7.121,12.985,13.179,21.657,18.004c8.849,4.931,17.527,8.538,25.797,10.722c8.423,2.22,18.041,3.907,28.585,5.015
				l10.055,1.057l-7.514,6.764c-6.762,6.087-10.98,15.058-12.539,26.664l-0.324,2.417l-2.203,1.048
				c-4.311,2.051-8.974,3.607-13.86,4.627c-4.86,1.008-10.644,1.518-17.193,1.518c-7.154,0-14.281-2.315-21.183-6.883
				c-6.741-4.459-12.548-10.968-17.258-19.347c-3.258-5.469-7.455-9.967-12.476-13.371c-5.031-3.411-9.2-5.478-12.392-6.143
				l-5.251-0.784c-1.902,0.012-3.208,0.129-4.087,0.265c0.21,0.286,0.44,0.575,0.69,0.866c0.912,1.063,1.892,1.97,2.908,2.695
				l1.667,1.193c4.702,2.245,9.312,6.283,13.707,12.009c4.289,5.58,7.502,10.797,9.55,15.504l2.986,6.908
				c2.199,6.424,5.804,11.471,11.021,15.427c5.305,4.022,11.094,6.618,17.206,7.717c6.593,1.194,13.02,1.844,19.108,1.928
				c0.67,0.01,1.329,0.015,1.974,0.015c5.213,0,9.583-0.316,13-0.941l11.877-2.054v5.345c0,7.398,0.049,15.931,0.145,25.359
				c0.105,10.879,0.144,14.925,0.144,15.463c0,4.653-1.784,8.759-5.161,11.871c-2.599,2.395-6.058,3.608-10.281,3.608
				c-1.55,0-3.235-0.167-5.009-0.496l-0.596-0.154c-44.86-14.888-81.963-42.088-110.279-80.844C16.364,318.561,2,274.297,2,225.765
				c0-40.398,10.101-78.189,30.021-112.325c19.913-34.12,47.307-61.513,81.419-81.418C147.573,12.101,185.367,2,225.771,2
				 M160.577,429.819c1.919,0,3.287-0.401,4.182-1.227c1.542-1.421,2.261-3.091,2.261-5.253c0-0.57-0.055-6.305-0.144-15.373
				c-0.073-7.266-0.119-14.004-0.137-20.105l-1.308,0.227c-3.97,0.727-8.778,1.08-14.612,1.08c-0.675,0-1.363-0.005-2.066-0.014
				c-6.583-0.092-13.508-0.789-20.58-2.071c-7.515-1.351-14.599-4.514-21.046-9.401c-6.549-4.967-11.271-11.529-14.038-19.51
				l-2.785-6.408c-1.754-4.032-4.591-8.611-8.434-13.61c-3.619-4.715-7.223-7.907-10.712-9.493l-0.4-0.182l-2.357-1.688
				c-1.6-1.141-3.117-2.54-4.504-4.154c-1.438-1.676-2.544-3.411-3.292-5.161c-1.486-3.466-0.17-6.992,3.355-8.979
				c2.248-1.266,5.58-1.854,10.489-1.854l0.665,0.05l5.927,0.891c4.447,0.891,9.607,3.356,15.774,7.538
				c6.137,4.161,11.247,9.635,15.188,16.269l0.057,0.097c4.007,7.143,8.854,12.625,14.403,16.296
				c5.404,3.576,10.859,5.389,16.217,5.389c5.938,0,11.105-0.447,15.361-1.329c3.377-0.704,6.623-1.706,9.679-2.983
				c1.517-9,4.533-16.658,9.007-22.885c-7.691-1.085-14.845-2.495-21.349-4.209c-8.998-2.376-18.377-6.266-27.879-11.561
				c-9.695-5.395-17.875-12.206-24.308-20.245c-6.412-8.018-11.717-18.595-15.766-31.438c-4.021-12.753-6.06-27.617-6.06-44.178
				c0-23.112,7.355-43.211,21.868-59.784c-6.356-17.673-5.354-37.474,2.992-58.906l0.787-2.021l2.071-0.644
				c2.002-0.622,4.264-0.938,6.72-0.938c5.652,0,12.463,1.604,20.821,4.902c11.001,4.342,19.248,8.153,24.511,11.326
				c4.129,2.488,7.69,4.727,10.618,6.676c17.406-4.668,35.565-7.035,54.012-7.035c18.477,0,36.667,2.374,54.099,7.057l9.171-5.79
				c7.657-4.717,16.752-9.072,27.075-12.97c7.541-2.844,13.778-4.227,19.069-4.227c2.573,0,4.938,0.341,7.032,1.015l2.019,0.649
				l0.784,1.971c8.537,21.446,9.638,41.257,3.286,58.937c14.515,16.576,21.871,36.675,21.871,59.784
				c0,16.531-2.038,31.439-6.058,44.308c-4.053,12.958-9.417,23.554-15.943,31.494c-6.523,7.925-14.739,14.674-24.42,20.061
				c-9.506,5.293-18.886,9.181-27.88,11.555c-6.459,1.705-13.563,3.109-21.203,4.194c6.731,9.189,10.134,21.636,10.134,37.14v60.237
				c0,2.195,0.694,3.884,2.187,5.314c0.806,0.771,2.146,1.163,3.984,1.163c0,0,0,0,0.001,0c0.913,0,1.941-0.099,3.062-0.293
				c42.914-14.304,78.423-40.38,105.549-77.508c27.179-37.201,40.959-79.679,40.959-126.252
				c-0.01-38.771-9.699-75.034-28.801-107.782c-19.121-32.759-45.424-59.063-78.18-78.181C300.824,20.688,264.557,11,225.771,11
				c-38.788,0-75.056,9.688-107.794,28.795c-32.756,19.114-59.061,45.418-78.182,78.181C20.688,150.717,11,186.982,11,225.765
				c0,46.582,13.781,89.059,40.96,126.251c27.126,37.127,62.632,63.203,105.544,77.511
				C158.624,429.721,159.656,429.819,160.577,429.819 M225.771,0c-40.763,0-78.896,10.192-113.338,30.294
				c-34.414,20.082-62.049,47.717-82.138,82.138C10.192,146.877,0,185.008,0,225.765c0,48.965,14.494,93.626,43.079,132.74
				c28.568,39.099,66.002,66.541,111.264,81.562l0.063,0.021l0.065,0.017l0.596,0.154l0.068,0.018l0.069,0.013
				c1.894,0.351,3.702,0.53,5.374,0.53c4.742,0,8.657-1.392,11.636-4.138c3.798-3.501,5.806-8.114,5.806-13.342
				c0-0.52-0.031-3.848-0.144-15.482c-0.096-9.448-0.144-17.973-0.144-25.34v-5.345v-2.376l-2.341,0.405l-11.877,2.054
				c-3.312,0.606-7.564,0.912-12.659,0.912c-0.635,0-1.284-0.005-1.945-0.014c-5.973-0.082-12.291-0.72-18.781-1.896
				c-5.803-1.043-11.304-3.513-16.354-7.343c-4.89-3.707-8.271-8.444-10.338-14.481l-0.025-0.074l-0.031-0.072l-2.986-6.908
				c-2.116-4.863-5.412-10.221-9.8-15.929c-4.538-5.911-9.337-10.121-14.269-12.517l-1.526-1.093
				c-0.045-0.032-0.089-0.064-0.134-0.097l4.354,0.65c2.929,0.624,6.839,2.585,11.624,5.829c4.771,3.235,8.763,7.514,11.868,12.72
				c4.864,8.646,10.881,15.378,17.884,20.011c7.234,4.787,14.732,7.215,22.286,7.215c6.688,0,12.61-0.525,17.599-1.559
				c5.045-1.052,9.86-2.66,14.313-4.779l2.203-1.048l0.979-0.466l0.144-1.074l0.324-2.417c1.494-11.122,5.496-19.683,11.895-25.444
				l7.514-6.764l3.339-3.006l-4.468-0.47l-10.055-1.057c-10.442-1.097-19.958-2.765-28.284-4.96
				c-8.105-2.14-16.629-5.685-25.333-10.535c-8.446-4.699-15.534-10.589-21.069-17.506c-5.56-6.952-10.225-16.33-13.864-27.874
				c-3.683-11.681-5.551-25.432-5.551-40.871c0-21.228,7.004-39.528,20.818-54.392l1.953-2.102l0.868-0.934l-0.48-1.181
				l-1.081-2.657c-5.993-14.736-5.735-31.557,0.766-50.015c0.195-0.007,0.394-0.01,0.596-0.01c4.185,0,9.831,1.391,16.782,4.134
				c10.433,4.118,18.128,7.656,22.872,10.515c4.802,2.893,8.777,5.417,11.813,7.5l1.732,1.189l0.77,0.529l0.9-0.251l2.024-0.565
				c17.054-4.765,34.909-7.181,53.068-7.181c18.162,0,36.019,2.416,53.074,7.181l1.924,0.538l0.855,0.239l0.751-0.474l12.496-7.889
				c6.999-4.312,15.46-8.355,25.129-12.006c6.189-2.335,11.296-3.519,15.18-3.519c0.301,0,0.595,0.007,0.881,0.022
				c6.684,18.488,7.034,35.326,1.037,50.067l-1.081,2.657l-0.48,1.181l0.868,0.934l1.952,2.102
				c13.816,14.867,20.821,33.168,20.821,54.393c0,15.418-1.869,29.221-5.556,41.027c-3.628,11.599-8.319,20.948-13.941,27.787
				c-5.643,6.855-12.801,12.722-21.274,17.438c-8.705,4.847-17.229,8.39-25.337,10.531c-8.32,2.195-17.836,3.866-28.284,4.965
				l-10.321,1.087l-4.587,0.483l3.488,3.018l7.847,6.791c8.358,7.234,12.596,19.22,12.596,35.624v60.237
				c0,5.176,1.928,9.76,5.576,13.256c2.925,2.801,6.825,4.221,11.594,4.221c1.667,0,3.472-0.179,5.366-0.531l0.066-0.012
				l0.065-0.017l0.595-0.152l0.067-0.017l0.066-0.022c45.266-15.019,82.703-42.46,111.27-81.561
				c28.583-39.124,43.076-83.785,43.076-132.741c-0.01-40.744-10.204-78.872-30.3-113.324
				c-20.088-34.418-47.723-62.053-82.136-82.138C304.664,10.192,266.531,0,225.771,0L225.771,0z M157.991,427.581
				c-42.44-14.183-77.572-40.004-104.416-76.745C26.651,313.993,13,271.914,13,225.765c0-38.425,9.596-74.351,28.522-106.781
				c18.945-32.461,45.007-58.523,77.462-77.462C151.413,22.596,187.341,13,225.771,13c38.427,0,74.355,9.596,106.787,28.522
				c32.453,18.941,58.515,45.003,77.46,77.461c18.92,32.437,28.518,68.361,28.528,106.774c0,46.14-13.651,88.221-40.574,125.072
				c-26.844,36.743-61.978,62.562-104.421,76.742c-0.95,0.158-1.816,0.239-2.574,0.239c-1.776,0-2.411-0.425-2.602-0.608
				c-1.1-1.055-1.57-2.212-1.57-3.87v-60.237c0-14.449-2.923-26.415-8.697-35.631c6.526-1.022,12.66-2.287,18.276-3.77
				c9.154-2.416,18.69-6.367,28.342-11.741c9.9-5.509,18.308-12.418,24.991-20.537c6.692-8.142,12.178-18.964,16.308-32.168
				c4.08-13.063,6.149-28.171,6.149-44.905c0-23.186-7.266-43.439-21.601-60.217c6.084-17.866,4.842-37.792-3.698-59.244
				l-0.784-1.97l-0.349-0.876l-0.898-0.289l-2.019-0.649c-2.292-0.737-4.864-1.111-7.644-1.111c-5.537,0-12.005,1.425-19.775,4.355
				c-10.443,3.943-19.668,8.364-27.418,13.138l-8.451,5.335c-17.34-4.578-35.426-6.899-53.77-6.899
				c-18.303,0-36.35,2.311-53.657,6.871c-2.801-1.844-6.14-3.935-9.94-6.225c-5.356-3.229-13.703-7.089-24.809-11.473
				c-8.597-3.393-15.648-5.042-21.556-5.042c-2.658,0-5.119,0.346-7.313,1.028l-2.071,0.644l-0.92,0.286l-0.35,0.898l-0.787,2.021
				c-8.348,21.435-9.49,41.344-3.399,59.199c-14.333,16.775-21.598,37.027-21.598,60.216c0,16.765,2.07,31.831,6.152,44.78
				c4.123,13.079,9.543,23.874,16.111,32.086c6.595,8.242,14.971,15.221,24.897,20.744c9.648,5.376,19.184,9.329,28.341,11.747
				c5.674,1.495,11.865,2.767,18.447,3.791c-3.503,5.671-5.976,12.357-7.372,19.931c-2.645,1.037-5.436,1.864-8.31,2.464
				c-4.121,0.854-9.153,1.287-14.953,1.287c-4.958,0-10.042-1.701-15.113-5.057c-5.284-3.495-9.914-8.745-13.763-15.607
				l-0.075-0.129c-4.099-6.899-9.41-12.586-15.792-16.913c-6.392-4.334-11.79-6.9-16.504-7.844l-0.048-0.01l-0.048-0.007
				l-5.927-0.891l-0.074-0.011l-0.074-0.006l-0.665-0.05l-0.075-0.006H74.45c-5.267,0-8.911,0.671-11.47,2.112
				c-4.407,2.483-6.1,7.108-4.212,11.51c0.828,1.936,2.043,3.846,3.612,5.675c1.493,1.738,3.128,3.245,4.861,4.481l2.354,1.686
				l0.16,0.114l0.179,0.081l0.401,0.182c3.187,1.449,6.536,4.44,9.952,8.89c3.743,4.869,6.497,9.306,8.186,13.19l2.755,6.338
				c2.902,8.326,7.846,15.182,14.694,20.375c6.7,5.08,14.069,8.369,21.901,9.776c7.18,1.302,14.215,2.009,20.906,2.103
				c0.713,0.01,1.41,0.014,2.094,0.014c5.484,0,10.054-0.305,13.927-0.932c0.022,5.457,0.065,11.416,0.129,17.752
				c0.071,7.239,0.144,14.724,0.144,15.353c0,1.607-0.483,2.738-1.616,3.782c-0.502,0.463-1.453,0.697-2.826,0.697
				C159.811,427.819,158.942,427.739,157.991,427.581L157.991,427.581z"/>
		</g>
	</g>
</g>
</svg>
