<?xml version="1.0" encoding="utf-8"?>
<!-- Generator: Adobe Illustrator 17.0.0, SVG Export Plug-In . SVG Version: 6.00 Build 0)  -->
<!DOCTYPE svg PUBLIC "-//W3C//DTD SVG 1.1//EN" "http://www.w3.org/Graphics/SVG/1.1/DTD/svg11.dtd">
<svg version="1.1" id="Calque_1" xmlns="http://www.w3.org/2000/svg" xmlns:xlink="http://www.w3.org/1999/xlink" x="0px" y="0px"
	 width="722.252px" height="336.75px" viewBox="0 0 722.252 336.75" enable-background="new 0 0 722.252 336.75"
	 xml:space="preserve">
<g>
	<defs>
		<rect id="SVGID_1_" width="722.252" height="336.75"/>
	</defs>
	<clipPath id="SVGID_2_">
		<use xlink:href="#SVGID_1_"  overflow="visible"/>
	</clipPath>
	<path clip-path="url(#SVGID_2_)" fill="#B4CC1B" d="M620.567,308.158l-199.916-75.309c-11.54-4.347-17.425-17.345-13.077-28.885
		l71.367-189.453c4.347-11.54,17.345-17.425,28.885-13.078l199.916,75.309c11.54,4.347,17.425,17.345,13.078,28.885L649.452,295.08
		C645.105,306.62,632.107,312.505,620.567,308.158"/>
	<path clip-path="url(#SVGID_2_)" fill="#B4CC1B" d="M303.539,261.929L96.342,332.498c-11.673,3.975-24.476-2.323-28.452-13.996
		L2.156,125.5c-3.976-11.673,2.322-24.477,13.995-28.452l207.197-70.569c11.673-3.975,24.476,2.322,28.452,13.995l65.734,193.003
		C321.51,245.15,315.212,257.953,303.539,261.929"/>
	<path clip-path="url(#SVGID_2_)" fill="#FFFFFF" d="M590.584,300.232l-187.28-70.549c-11.54-4.347-17.425-17.345-13.078-28.885
		l62.741-166.554c4.347-11.54,17.346-17.425,28.885-13.078l187.281,70.549c11.54,4.347,17.425,17.345,13.077,28.885l-62.741,166.554
		C615.122,298.694,602.124,304.579,590.584,300.232"/>
	<path clip-path="url(#SVGID_2_)" fill="none" stroke="#FFFFFF" stroke-width="24" stroke-miterlimit="10" d="M590.584,300.232
		l-187.28-70.549c-11.54-4.347-17.425-17.345-13.078-28.885l62.741-166.554c4.347-11.54,17.346-17.425,28.885-13.078l187.281,70.549
		c11.54,4.347,17.425,17.345,13.077,28.885l-62.741,166.554C615.122,298.694,602.124,304.579,590.584,300.232z"/>
	<path clip-path="url(#SVGID_2_)" fill="#B4CC1B" d="M552.421,141.757c-17.895-6.741-37.937,2.333-44.678,20.228
		s2.333,37.937,20.228,44.678c17.894,6.741,37.937-2.333,44.678-20.228C579.39,168.541,570.316,148.498,552.421,141.757"/>
	<path clip-path="url(#SVGID_2_)" fill="#383933" d="M540.696,148.812c-6.556-2.47-13.895,0.853-16.365,7.409
		c-2.469,6.553,0.854,13.895,7.409,16.365c6.554,2.468,13.897-0.856,16.365-7.409C550.575,158.621,547.249,151.28,540.696,148.812
		 M533.979,166.643c-3.279-1.235-4.939-4.907-3.705-8.183c1.235-3.279,4.903-4.939,8.183-3.704c3.277,1.235,4.939,4.902,3.704,8.182
		C540.927,166.214,537.256,167.877,533.979,166.643"/>
	<path clip-path="url(#SVGID_2_)" fill="#383933" d="M609.235,184.811l-35.67-13.437c5.221-18.222-3.591-37.682-20.728-45.782
		l13.437-35.671c0.618-1.639-0.213-3.473-1.853-4.09c-1.642-0.619-3.473,0.211-4.091,1.851l-13.437,35.671
		c-18.224-5.222-37.683,3.59-45.783,20.727l-35.669-13.437c-1.64-0.618-3.474,0.213-4.092,1.853
		c-0.619,1.643,0.212,3.474,1.852,4.092l35.67,13.436c-5.221,18.225,3.591,37.683,20.728,45.783l-13.437,35.67
		c-0.618,1.64,0.213,3.474,1.853,4.092c1.642,0.618,3.474-0.212,4.092-1.853l13.438-35.673c18.22,5.224,37.681-3.587,45.781-20.725
		l35.67,13.437c1.64,0.618,3.473-0.213,4.091-1.853C611.705,187.261,610.875,185.429,609.235,184.811 M524.761,191.114
		c-16.772-6.318-25.274-25.104-18.958-41.872c6.318-16.772,25.1-25.275,41.872-18.957c16.769,6.317,25.275,25.099,18.957,41.871
		C560.316,188.924,541.529,197.431,524.761,191.114"/>
	<path clip-path="url(#SVGID_2_)" fill="#383933" d="M600.076,308.381c-3.108,0-6.162-0.557-9.082-1.657l-192.282-72.433
		c-13.376-5.039-20.159-20.02-15.12-33.395l64.456-171.104c3.78-10.034,13.55-16.776,24.313-16.776c3.106,0,6.162,0.558,9.081,1.657
		l192.282,72.433c6.456,2.432,11.588,7.254,14.451,13.577c2.864,6.324,3.101,13.362,0.668,19.818l-64.455,171.104
		C620.609,301.64,610.839,308.381,600.076,308.381 M472.361,20.016c-7.866,0-15.004,4.92-17.763,12.244l-64.455,171.104
		c-3.678,9.763,1.273,20.699,11.036,24.377l192.283,72.432c2.128,0.802,4.353,1.208,6.614,1.208c7.865,0,15.003-4.92,17.762-12.243
		l64.455-171.105c1.773-4.706,1.597-9.842-0.495-14.462c-2.091-4.62-5.834-8.141-10.541-9.914L478.974,21.224
		C476.846,20.422,474.622,20.016,472.361,20.016"/>
	<path clip-path="url(#SVGID_2_)" fill="#FFFFFF" d="M482.125,315.227H239.438c-12.332,0-22.421-10.089-22.421-22.421V76.114
		c0-12.331,10.089-22.42,22.421-22.42h242.687c12.331,0,22.421,10.089,22.421,22.42v216.692
		C504.546,305.138,494.456,315.227,482.125,315.227"/>
	<path clip-path="url(#SVGID_2_)" fill="#FFFFFF" d="M463.518,298.302H258.045c-12.331,0-22.421-10.089-22.421-22.421V93.039
		c0-12.331,10.09-22.42,22.421-22.42h205.473c12.331,0,22.421,10.089,22.421,22.42v182.842
		C485.939,288.213,475.849,298.302,463.518,298.302"/>
	<path clip-path="url(#SVGID_2_)" fill="none" stroke="#383933" stroke-width="7" stroke-miterlimit="10" d="M463.518,298.302
		H258.045c-12.331,0-22.421-10.089-22.421-22.421V93.039c0-12.331,10.09-22.42,22.421-22.42h205.473
		c12.331,0,22.421,10.089,22.421,22.42v182.842C485.939,288.213,475.849,298.302,463.518,298.302z"/>
	<path clip-path="url(#SVGID_2_)" fill="#B4CC1B" d="M369.88,146.235c-14.594,0-26.468,11.873-26.468,26.468
		c0,14.594,11.874,26.468,26.468,26.468c14.594,0,26.468-11.874,26.468-26.468C396.348,158.108,384.474,146.235,369.88,146.235"/>
	<path clip-path="url(#SVGID_2_)" fill="#383933" d="M360.782,108.086c-28.585,0-51.84,23.255-51.84,51.84
		c0,11.486,6.762,28.956,21.282,54.976c9.909,17.754,19.771,32.75,20.187,33.382l7.129,10.805c0.718,1.09,1.936,1.745,3.242,1.745
		s2.523-0.655,3.242-1.745l7.128-10.804c0.412-0.625,10.203-15.492,20.187-33.383c14.52-26.019,21.283-43.488,21.283-54.976
		C412.622,131.341,389.366,108.086,360.782,108.086 M384.556,211.116c-9.845,17.642-19.481,32.275-19.888,32.89l-3.886,5.891
		l-3.886-5.889c-0.408-0.62-10.118-15.385-19.888-32.892c-13.469-24.136-20.298-41.359-20.298-51.19
		c0-24.302,19.77-44.072,44.072-44.072c24.301,0,44.072,19.77,44.072,44.072C404.854,169.758,398.025,186.98,384.556,211.116"/>
	<path clip-path="url(#SVGID_2_)" fill="#383933" d="M360.781,130.859c-15.849,0-28.742,12.894-28.742,28.743
		c0,15.848,12.893,28.742,28.742,28.742c15.849,0,28.742-12.894,28.742-28.742C389.523,143.753,376.63,130.859,360.781,130.859
		 M360.781,180.576c-11.565,0-20.974-9.409-20.974-20.974c0-11.566,9.409-20.974,20.974-20.974c11.566,0,20.974,9.408,20.974,20.974
		C381.755,171.167,372.347,180.576,360.781,180.576"/>
	<path clip-path="url(#SVGID_2_)" fill="#FFFFFF" d="M308.094,235.34l-194.501,66.245c-11.673,3.975-24.477-2.322-28.452-13.995
		L26.192,114.511c-3.976-11.673,2.322-24.477,13.995-28.452l194.502-66.245c11.673-3.975,24.476,2.322,28.452,13.995l58.948,173.079
		C326.065,218.561,319.767,231.364,308.094,235.34"/>
	<path clip-path="url(#SVGID_2_)" fill="none" stroke="#FFFFFF" stroke-width="19" stroke-miterlimit="10" d="M308.094,235.34
		l-194.501,66.245c-11.673,3.975-24.477-2.322-28.452-13.995L26.192,114.511c-3.976-11.673,2.322-24.477,13.995-28.452
		l194.502-66.245c11.673-3.975,24.476,2.322,28.452,13.995l58.948,173.079C326.065,218.561,319.767,231.364,308.094,235.34z"/>
	<path clip-path="url(#SVGID_2_)" fill="#B4CC1B" d="M179.053,144.237c-15.392,5.242-23.649,22.029-18.407,37.421
		c5.242,15.392,22.029,23.649,37.421,18.407s23.649-22.029,18.407-37.421C211.232,147.252,194.445,138.995,179.053,144.237"/>
	<path clip-path="url(#SVGID_2_)" fill="#383933" d="M232.069,172.891c1.184-5.57,1.554-11.215,1.107-16.845l5.465-1.861
		c5.697-1.94,8.752-8.152,6.812-13.849l-2.395-7.033c-1.94-5.696-8.153-8.752-13.849-6.812l-5.465,1.861
		c-3.082-4.732-6.821-8.977-11.159-12.667l2.558-5.201c2.656-5.399,0.424-11.953-4.976-14.609l-6.667-3.279
		c-2.615-1.287-5.576-1.478-8.335-0.538s-4.988,2.898-6.274,5.514l-2.558,5.2c-5.57-1.184-11.215-1.555-16.845-1.107l-1.861-5.466
		c-1.94-5.696-8.153-8.752-13.849-6.812l-7.033,2.396c-5.697,1.94-8.752,8.152-6.812,13.849l1.861,5.465
		c-4.732,3.082-8.977,6.821-12.667,11.158l-5.2-2.558c-2.616-1.286-5.576-1.477-8.336-0.538c-2.759,0.94-4.987,2.899-6.274,5.514
		l-3.28,6.667c-2.655,5.4-0.423,11.954,4.976,14.61l5.201,2.558c-1.184,5.57-1.555,11.215-1.108,16.845l-5.465,1.861
		c-5.696,1.94-8.752,8.153-6.812,13.849l2.395,7.034c1.94,5.696,8.153,8.752,13.849,6.811l5.465-1.861
		c3.082,4.732,6.822,8.977,11.159,12.667l-2.558,5.201c-2.655,5.4-0.423,11.953,4.976,14.609l6.667,3.28
		c5.4,2.656,11.953,0.424,14.61-4.976l2.558-5.2c5.57,1.184,11.214,1.555,16.844,1.108l1.861,5.465
		c1.94,5.696,8.153,8.752,13.849,6.812l7.034-2.396c5.696-1.94,8.752-8.152,6.812-13.849l-1.862-5.465
		c4.733-3.082,8.978-6.821,12.668-11.159l5.2,2.559c5.4,2.656,11.954,0.424,14.609-4.976l3.28-6.667
		c2.655-5.4,0.423-11.954-4.976-14.61L232.069,172.891z M235.995,186.984l-3.28,6.668c-0.96,1.952-3.332,2.76-5.284,1.799
		l-7.693-3.784c-1.486-0.73-3.281-0.314-4.293,0.997c-4.129,5.346-9.144,9.762-14.905,13.126c-1.43,0.835-2.074,2.563-1.54,4.131
		l2.756,8.093c0.702,2.06-0.404,4.307-2.464,5.009l-7.033,2.395c-2.061,0.702-4.308-0.403-5.009-2.464l-2.757-8.093
		c-0.534-1.568-2.099-2.543-3.741-2.331c-6.617,0.851-13.285,0.414-19.818-1.301c-0.681-0.179-1.376-0.143-2.006,0.071
		c-0.851,0.29-1.583,0.907-2.004,1.761l-3.783,7.692c-0.962,1.953-3.332,2.761-5.285,1.8l-6.667-3.28
		c-1.952-0.961-2.76-3.331-1.799-5.284l3.784-7.693c0.73-1.486,0.314-3.282-0.997-4.294c-5.346-4.128-9.762-9.143-13.127-14.903
		c-0.835-1.431-2.562-2.075-4.13-1.541l-8.093,2.756c-2.06,0.702-4.307-0.403-5.009-2.464l-2.396-7.033
		c-0.701-2.06,0.404-4.308,2.464-5.009l8.093-2.757c1.568-0.534,2.543-2.098,2.332-3.741c-0.852-6.617-0.414-13.284,1.3-19.818
		c0.421-1.602-0.345-3.278-1.831-4.009l-7.693-3.784c-1.953-0.961-2.76-3.332-1.799-5.285l3.279-6.667
		c0.465-0.945,1.271-1.654,2.269-1.994c0.998-0.34,2.069-0.271,3.015,0.195l7.693,3.784c1.486,0.73,3.283,0.314,4.294-0.997
		c4.129-5.345,9.143-9.762,14.904-13.126c1.43-0.835,2.074-2.563,1.54-4.131l-2.756-8.093c-0.702-2.06,0.404-4.307,2.464-5.009
		l7.033-2.395c2.061-0.702,4.308,0.403,5.009,2.464l2.757,8.093c0.534,1.568,2.099,2.543,3.741,2.331
		c6.617-0.851,13.285-0.414,19.818,1.301c1.602,0.42,3.279-0.346,4.01-1.832l3.784-7.692c0.465-0.946,1.27-1.655,2.269-1.995
		c0.998-0.34,2.068-0.27,3.015,0.195l6.667,3.279c1.953,0.961,2.76,3.332,1.8,5.285l-3.784,7.692
		c-0.731,1.487-0.315,3.282,0.996,4.294c5.346,4.129,9.763,9.144,13.127,14.904c0.835,1.431,2.562,2.075,4.13,1.541l8.093-2.756
		c2.06-0.702,4.307,0.403,5.009,2.464l2.395,7.033c0.702,2.06-0.403,4.308-2.463,5.009l-8.093,2.756
		c-1.568,0.534-2.543,2.099-2.332,3.742c0.852,6.617,0.414,13.284-1.3,19.817c-0.421,1.603,0.345,3.279,1.831,4.01l7.693,3.784
		C236.148,182.66,236.955,185.031,235.995,186.984"/>
	<path clip-path="url(#SVGID_2_)" fill="#383933" d="M164.634,132.785c-15.392,5.242-23.65,22.029-18.407,37.421
		c5.242,15.392,22.029,23.649,37.421,18.407s23.649-22.029,18.407-37.421C196.812,135.8,180.025,127.543,164.634,132.785
		 M181.402,182.019c-11.756,4.004-24.577-2.303-28.581-14.059s2.302-24.577,14.058-28.581s24.578,2.303,28.582,14.059
		C199.465,165.193,193.158,178.015,181.402,182.019"/>
	
		<line clip-path="url(#SVGID_2_)" fill="none" stroke="#383933" stroke-width="7" stroke-linecap="round" stroke-miterlimit="10" x1="3.5" y1="74.045" x2="73.761" y2="50.82"/>
	
		<line clip-path="url(#SVGID_2_)" fill="none" stroke="#383933" stroke-width="7" stroke-linecap="round" stroke-miterlimit="10" x1="86.737" y1="46.53" x2="94.491" y2="43.967"/>
	
		<line clip-path="url(#SVGID_2_)" fill="none" stroke="#383933" stroke-width="7" stroke-linecap="round" stroke-miterlimit="10" x1="615.059" y1="333.25" x2="544.984" y2="309.469"/>
	
		<line clip-path="url(#SVGID_2_)" fill="none" stroke="#383933" stroke-width="7" stroke-linecap="round" stroke-miterlimit="10" x1="532.042" y1="305.077" x2="524.308" y2="302.453"/>
	<path clip-path="url(#SVGID_2_)" fill="none" stroke="#383933" stroke-width="7" stroke-miterlimit="10" d="M308.094,235.34
		l-194.501,66.245c-11.673,3.975-24.477-2.322-28.452-13.995L26.192,114.511c-3.976-11.673,2.322-24.477,13.995-28.452
		l194.502-66.245c11.673-3.975,24.476,2.322,28.452,13.995l58.948,173.079C326.065,218.561,319.767,231.364,308.094,235.34z"/>
</g>
</svg>
