<?xml version="1.0" encoding="utf-8"?>
<!-- Generator: Adobe Illustrator 17.0.0, SVG Export Plug-In . SVG Version: 6.00 Build 0)  -->
<!DOCTYPE svg PUBLIC "-//W3C//DTD SVG 1.1//EN" "http://www.w3.org/Graphics/SVG/1.1/DTD/svg11.dtd">
<svg version="1.1" id="Calque_1" xmlns="http://www.w3.org/2000/svg" xmlns:xlink="http://www.w3.org/1999/xlink" x="0px" y="0px"
	 width="512px" height="292.137px" viewBox="0 0 512 292.137" enable-background="new 0 0 512 292.137" xml:space="preserve">
<path fill="#EE6B4D" d="M508.872,267.117L313.224,6.255C310.27,2.316,305.637,0,300.714,0c-4.922,0-9.557,2.316-12.51,6.255
	l-81.115,108.156l-32.207-42.943c-2.953-3.939-7.588-6.255-12.51-6.255c-4.923,0-9.556,2.316-12.51,6.255L3.127,267.117
	c-3.553,4.737-4.124,11.08-1.476,16.378c2.648,5.296,8.062,8.642,13.986,8.642h480.725c5.923,0,11.338-3.346,13.986-8.642
	C512.998,278.195,512.427,271.854,508.872,267.117 M46.912,260.862l115.46-153.949l32.205,42.943
	c2.952,3.938,7.587,6.255,12.51,6.255s9.555-2.317,12.51-6.255L300.712,41.7l164.374,219.162H46.912z"/>
</svg>
