<?xml version="1.0" encoding="utf-8"?>
<!-- Generator: Adobe Illustrator 17.0.0, SVG Export Plug-In . SVG Version: 6.00 Build 0)  -->
<!DOCTYPE svg PUBLIC "-//W3C//DTD SVG 1.1//EN" "http://www.w3.org/Graphics/SVG/1.1/DTD/svg11.dtd">
<svg version="1.1" id="Capa_1" xmlns="http://www.w3.org/2000/svg" xmlns:xlink="http://www.w3.org/1999/xlink" x="0px" y="0px"
	 width="542.01px" height="342.464px" viewBox="-15.001 84.769 542.01 342.464"
	 enable-background="new -15.001 84.769 542.01 342.464" xml:space="preserve">
<g>
	<path fill="#3BB6B3" d="M232.608,100.055c2.732,0,5.361,1.293,7.023,3.463c1.663,2.152,2.238,5.032,1.528,7.682l-6.888,24.039
		c-0.492,1.576-1.418,2.98-2.669,4.058l-95.02,81.559c21.053,5.163,37.704,14.102,49.613,26.661
		c17.134,18.06,23.441,41.643,18.751,70.097c-7.838,47.491-43.077,81.757-94.26,91.663c-9.14,1.772-18.469,2.672-27.725,2.672h-0.01
		c-35.204,0-64.922-12.907-77.555-33.684l-4.119-6.78c-2.531-4.169-1.201-9.625,2.962-12.16l28.477-17.305
		c1.396-0.846,3.008-1.285,4.622-1.285c0.713,0,1.426,0.086,2.12,0.259c2.247,0.544,4.193,1.967,5.423,3.994L49,351.767
		c1.243,2.033,12.313,9.222,33.56,9.222c6.064,0,12.265-0.605,18.427-1.8c14.098-2.729,47.541-13.054,53.617-49.887
		c2.041-12.339,0.372-20.562-5.407-26.664c-9.565-10.096-31.011-15.888-58.842-15.888c-8.739,0-14.623,0.599-14.868,0.625
		l-0.515,0.058c-0.37,0.039-0.683,0.055-0.987,0.055c-2.368,0-4.594-0.921-6.264-2.593l-21.313-21.308
		c-1.742-1.747-2.682-4.147-2.59-6.595c0.092-2.463,1.22-4.792,3.091-6.394l92.644-79.521H47.815c-4.882,0-8.854-3.973-8.854-8.854
		v-33.313c0-4.881,3.971-8.854,8.854-8.854H232.608 M232.608,85.055H47.815c-13.153,0-23.854,10.701-23.854,23.854v33.313
		c0,13.153,10.701,23.854,23.854,23.854h51.232l-61.908,53.139c-5.03,4.307-8.064,10.587-8.311,17.218
		c-0.247,6.594,2.289,13.063,6.958,17.745l21.329,21.324c4.492,4.501,10.487,6.986,16.869,6.986c0.837,0,1.67-0.044,2.546-0.136
		l0.059-0.006l0.059-0.007l0.439-0.049c0.433-0.043,5.662-0.539,13.268-0.539c27.559,0,43.056,6.036,47.953,11.205
		c0.966,1.02,3.232,3.413,1.498,13.9c-4.38,26.554-27.986,34.96-41.668,37.608c-5.227,1.013-10.466,1.526-15.577,1.526
		c-12.637,0-19.642-2.95-22.093-4.235l-2.768-4.556c-3.303-5.443-8.514-9.271-14.671-10.773c-1.856-0.458-3.77-0.69-5.691-0.69
		c-4.38,0-8.668,1.196-12.4,3.459l-28.489,17.312c-11.23,6.839-14.811,21.533-7.995,32.762l4.123,6.786
		c7.82,12.861,20.668,23.442,37.158,30.604c15.503,6.733,33.905,10.292,53.217,10.292c10.218,0,20.507-0.991,30.59-2.947
		c27.985-5.416,52.533-17.765,70.986-35.709c18.669-18.154,30.847-41.75,35.218-68.237c2.684-16.281,2.179-31.51-1.5-45.265
		c-3.779-14.126-10.901-26.776-21.169-37.599c-8.429-8.889-18.793-16.213-30.976-21.906l75.27-64.607
		c3.402-2.934,5.889-6.718,7.216-10.966l0.053-0.171l0.049-0.172l6.888-24.039l0.036-0.125l0.034-0.125
		c1.913-7.141,0.366-14.888-4.14-20.725C247.026,88.531,239.965,85.055,232.608,85.055L232.608,85.055z"/>
	<path fill="#3BB6B3" d="M373.186,99.769c43.533,0,81.834,17.006,107.851,47.884c25.766,30.584,35.948,70.68,28.67,112.906
		c-14.406,83.632-95.815,151.674-181.476,151.674h-90.517c-2.625,0-5.097-1.153-6.782-3.162c-1.669-1.978-2.386-4.602-1.946-7.181
		l36.606-212.993c0.726-4.258,4.398-7.353,8.725-7.353h34.299c2.616,0,5.081,1.146,6.766,3.144c1.685,1.996,2.402,4.62,1.962,7.197
		L288.315,360.72h39.917c61.73,0,120.367-48.855,130.708-108.906c4.654-26.999-1.491-52.203-17.302-70.972
		c-16.059-19.065-40.37-29.562-68.452-29.562h-94.231c-2.606,0-5.064-1.14-6.753-3.125c-1.685-1.995-2.407-4.609-1.982-7.18
		l5.637-33.81c0.705-4.284,4.377-7.399,8.731-7.399H373.186 M373.186,84.769h-88.597c-11.732,0-21.628,8.395-23.532,19.962
		l-5.632,33.779c-1.146,6.934,0.794,13.972,5.32,19.328l0.016,0.019l0.016,0.019c4.544,5.341,11.17,8.405,18.178,8.405h94.231
		c23.585,0,43.821,8.603,56.98,24.226c12.913,15.328,17.882,36.195,13.992,58.76c-9.159,53.186-61.163,96.454-115.926,96.454
		h-22.118l26.014-151.294c1.188-6.964-0.74-14.034-5.284-19.416c-4.538-5.379-11.183-8.467-18.227-8.467h-34.299
		c-11.664,0-21.552,8.341-23.512,19.832l-36.603,212.974c-1.187,6.963,0.734,14.025,5.265,19.395
		c4.515,5.383,11.176,8.488,18.246,8.488h90.517c44.939,0,90.07-17.034,127.078-47.966c37.041-30.958,61.61-72.212,69.18-116.162
		c8.042-46.657-3.316-91.092-31.981-125.117C463.593,103.669,421.217,84.769,373.186,84.769L373.186,84.769z"/>
</g>
</svg>
