<?xml version="1.0" encoding="utf-8"?>
<!-- Generator: Adobe Illustrator 17.0.0, SVG Export Plug-In . SVG Version: 6.00 Build 0)  -->
<!DOCTYPE svg PUBLIC "-//W3C//DTD SVG 1.1//EN" "http://www.w3.org/Graphics/SVG/1.1/DTD/svg11.dtd">
<svg version="1.1" id="Calque_1" xmlns="http://www.w3.org/2000/svg" xmlns:xlink="http://www.w3.org/1999/xlink" x="0px" y="0px"
	 width="376.726px" height="511.998px" viewBox="0 0 376.726 511.998" enable-background="new 0 0 376.726 511.998"
	 xml:space="preserve">
<path fill="#9D6BC9" d="M348.861,296.011c-17.954-20.683-42.767-34.204-69.877-38.079l-62.237-9.76V139.558
	c0-25.793-20.986-46.777-46.778-46.777h-0.7c-25.793,0-46.779,20.984-46.779,46.777v174.431l-64.34-27.574
	c-12.924-5.538-27.656-4.227-39.399,3.518C7.009,297.675,0,310.696,0,324.759v0.587c0,11.902,5.101,23.266,13.996,31.174
	l108.496,96.478v46.872c0,6.698,5.428,12.126,12.127,12.126c6.698,0,12.126-5.428,12.126-12.126v-52.316
	c0-3.464-1.481-6.762-4.069-9.061L30.111,338.398c-3.723-3.312-5.858-8.067-5.858-13.05v-0.587c0-5.975,2.862-11.289,7.849-14.58
	c4.991-3.29,11.006-3.825,16.493-1.473l81.233,34.815c0.747,0.322,1.533,0.574,2.349,0.741c1.214,0.25,2.44,0.305,3.638,0.184
	c0.136-0.013,0.269-0.039,0.403-0.057c0.25-0.034,0.503-0.066,0.75-0.114c0.217-0.042,0.429-0.102,0.64-0.156
	c0.162-0.042,0.324-0.076,0.484-0.124c0.241-0.071,0.475-0.159,0.71-0.246c0.129-0.047,0.262-0.09,0.389-0.142
	c0.23-0.094,0.453-0.201,0.675-0.307c0.13-0.063,0.265-0.122,0.392-0.19c0.199-0.105,0.39-0.221,0.582-0.336
	c0.148-0.089,0.298-0.173,0.442-0.268c0.162-0.107,0.314-0.223,0.47-0.337c0.165-0.121,0.332-0.237,0.492-0.367
	c0.128-0.103,0.247-0.216,0.372-0.325c0.171-0.152,0.346-0.302,0.509-0.464c0.11-0.108,0.212-0.224,0.317-0.336
	c0.162-0.171,0.323-0.339,0.474-0.522c0.116-0.139,0.22-0.286,0.33-0.429c0.126-0.165,0.253-0.325,0.372-0.496
	c0.148-0.218,0.282-0.445,0.417-0.673c0.064-0.108,0.134-0.21,0.195-0.32c0.582-1.054,1.016-2.202,1.265-3.418
	c0.168-0.813,0.245-1.633,0.245-2.445V139.558c0-12.419,10.104-22.523,22.525-22.523h0.7c12.421,0,22.525,10.104,22.525,22.523
	v116.456c0,0.448,0.029,0.891,0.076,1.326c-0.64,6.359,3.782,12.183,10.172,13.184l72.566,11.378
	c0.058,0.01,0.115,0.018,0.173,0.028c43.895,6.236,76.998,44.373,76.998,88.712v1.238c0,20.518-5.008,40.987-14.481,59.188
	l-32.896,63.201c-3.093,5.942-0.782,13.263,5.157,16.355c1.788,0.931,3.702,1.374,5.589,1.374c4.377,0,8.605-2.38,10.765-6.531
	l32.896-63.201c11.268-21.646,17.221-45.984,17.221-70.386v-1.238C376.731,343.224,366.833,316.72,348.861,296.011"/>
<path fill="#9D6BC9" d="M169.62,61.102c6.699,0,12.127-5.428,12.127-12.127V12.127C181.747,5.428,176.318,0,169.62,0
	c-6.699,0-12.127,5.428-12.127,12.127v36.848C157.492,55.674,162.923,61.102,169.62,61.102"/>
<path fill="#9D6BC9" d="M244.73,159.905c0,6.699,5.428,12.127,12.127,12.127h36.849c6.698,0,12.126-5.428,12.126-12.127
	c0-6.699-5.428-12.127-12.126-12.127h-36.849C250.16,147.778,244.73,153.208,244.73,159.905"/>
<path fill="#9D6BC9" d="M247.245,91.302c3.103,0,6.207-1.184,8.576-3.551l26.056-26.056c4.736-4.737,4.736-12.414,0-17.15
	c-4.737-4.734-12.414-4.734-17.15,0l-26.058,26.054c-4.736,4.738-4.736,12.415,0,17.151
	C241.038,90.117,244.142,91.302,247.245,91.302"/>
<path fill="#9D6BC9" d="M73.877,87.75c2.369,2.367,5.473,3.551,8.576,3.551s6.207-1.184,8.576-3.551
	c4.736-4.737,4.736-12.414,0-17.15L64.971,44.544c-4.737-4.735-12.414-4.735-17.15,0c-4.736,4.737-4.736,12.414,0,17.15
	L73.877,87.75z"/>
<path fill="#9D6BC9" d="M36.524,172.031h36.849c6.699,0,12.126-5.428,12.126-12.127c0-6.698-5.427-12.126-12.126-12.126H36.524
	c-6.699,0-12.127,5.428-12.127,12.126C24.397,166.603,29.825,172.031,36.524,172.031"/>
</svg>
