<?xml version="1.0" encoding="utf-8"?>
<!-- Generator: Adobe Illustrator 18.0.0, SVG Export Plug-In . SVG Version: 6.00 Build 0)  -->
<!DOCTYPE svg PUBLIC "-//W3C//DTD SVG 1.1//EN" "http://www.w3.org/Graphics/SVG/1.1/DTD/svg11.dtd">
<svg version="1.1" id="Calque_1" xmlns="http://www.w3.org/2000/svg" xmlns:xlink="http://www.w3.org/1999/xlink" x="0px" y="0px"
	 viewBox="54.1 -135.2 1490.3 1472.2" enable-background="new 54.1 -135.2 1490.3 1472.2" xml:space="preserve">
<g>
	<path fill="#EE6B4D" d="M1544.4,152.8c-0.8-16.8-8.5-32.5-21-43.1L1245.4-122c-10.3-8.5-23.3-13.2-36.7-13.2
		c-13.4,0-26.4,4.7-36.8,13.3L894.2,109.6l-0.1,0.1c-13,11-20.5,27-20.5,43.9v1125.9c0,31.7,25.8,57.5,57.5,57.5H1487
		c31.7,0,57.5-25.8,57.5-57.5V153.6L1544.4,152.8z M1429.2,180.7v1041.7H988V180.7L1208.6-2.9L1429.2,180.7z"/>
	<path fill="#EE6B4D" d="M703.7,574.1L425.9,342.6c-10.3-8.5-23.3-13.2-36.7-13.2s-26.4,4.7-36.8,13.3L74.7,574.2l-0.1,0.1
		c-13,11-20.5,27-20.5,43.9v661.4c0,31.7,25.8,57.5,57.5,57.5h555.9c31.7,0,57.5-25.8,57.5-57.5V618.1l0-0.8
		C724.1,600.2,716.4,584.4,703.7,574.1z M168.5,1222.4V645.2l220.6-183.6l220.6,183.6v577.2H168.5z"/>
	<path fill="#EE6B4D" d="M447.5,954.9L429,973.4V673.9c0-22.3-18.2-40.5-40.5-40.5c-21.7,0.3-39.9,18.2-39.9,40.5v299.5l-18.5-18.5
		c-15.9-15.9-41.3-15.9-57.2,0c-15.9,15.9-15.9,41.3,0,57.2l79.5,79.5c10.1,10.1,23.1,15,36.4,15s26.3-4.9,36.4-15l79.5-79.5
		c15.9-15.9,15.9-41.3,0-57.2C488.8,939,463.4,939,447.5,954.9z"/>
	<path fill="#EE6B4D" d="M1149.9,711.2l18.5-18.5v299.5c0,22.3,18.2,40.5,40.5,40.5s40.5-18.2,40.5-40.5V693l18.5,18.5
		c7.8,7.8,18.2,11.9,28.6,11.9c10.4,0,20.8-4,28.6-11.9c15.9-15.9,15.9-41.3,0-57.2l-79.5-79.5c-20.8-20.2-53.2-20.2-73.4-0.3
		l-79.5,79.5c-15.9,15.9-15.9,41.3,0,57.2S1134,727.1,1149.9,711.2z"/>
</g>
</svg>
