<?xml version="1.0" encoding="utf-8"?>
<!-- Generator: Adobe Illustrator 17.0.0, SVG Export Plug-In . SVG Version: 6.00 Build 0)  -->
<!DOCTYPE svg PUBLIC "-//W3C//DTD SVG 1.1//EN" "http://www.w3.org/Graphics/SVG/1.1/DTD/svg11.dtd">
<svg version="1.1" id="Calque_1" xmlns="http://www.w3.org/2000/svg" xmlns:xlink="http://www.w3.org/1999/xlink" x="0px" y="0px"
	 width="305.087px" height="160.01px" viewBox="0 0 305.087 160.01" enable-background="new 0 0 305.087 160.01"
	 xml:space="preserve">
<g>
	
		<line fill="none" stroke="#383933" stroke-width="7" stroke-linecap="round" stroke-miterlimit="10" x1="3.5" y1="22.865" x2="59.074" y2="23.007"/>
	
		<line fill="none" stroke="#383933" stroke-width="7" stroke-linecap="round" stroke-miterlimit="10" x1="72.741" y1="23.042" x2="80.907" y2="23.062"/>
</g>
<g>
	
		<line fill="none" stroke="#383933" stroke-width="7" stroke-linecap="round" stroke-miterlimit="10" x1="301.587" y1="141.143" x2="246.013" y2="141.001"/>
	
		<line fill="none" stroke="#383933" stroke-width="7" stroke-linecap="round" stroke-miterlimit="10" x1="232.347" y1="140.967" x2="224.18" y2="140.946"/>
</g>
<g>
	<g>
		<path fill="#9D6BC9" d="M167.026,56.564c-19.122,0.007-34.673,15.57-34.666,34.693s15.57,34.673,34.693,34.666
			s34.673-15.57,34.666-34.693S186.148,56.556,167.026,56.564z"/>
	</g>
</g>
<g>
	<g>
		<path fill="#383933" d="M158.545,67.302c-7.005,0.003-12.7,5.702-12.698,12.708c0.003,7.003,5.702,12.7,12.708,12.697
			c7.003-0.003,12.7-5.704,12.698-12.707C171.25,72.994,165.548,67.299,158.545,67.302z M158.553,86.356
			c-3.504,0.001-6.353-2.848-6.355-6.349c-0.001-3.504,2.845-6.352,6.35-6.353c3.502-0.001,6.352,2.844,6.353,6.348
			C164.902,83.503,162.054,86.355,158.553,86.356z"/>
		<path fill="#383933" d="M235.378,76.799l-38.117,0.015c-1.545-18.892-16.657-33.991-35.55-35.522l-0.015-38.117
			c-0.001-1.752-1.425-3.174-3.177-3.174c-1.755,0.001-3.175,1.424-3.175,3.176l0.015,38.118
			c-18.894,1.545-33.991,16.657-35.523,35.55L81.72,76.858c-1.753,0.001-3.175,1.425-3.175,3.177
			c0.001,1.755,1.425,3.175,3.177,3.175l38.116-0.015c1.546,18.894,16.658,33.991,35.551,35.522l0.015,38.117
			c0.001,1.753,1.425,3.175,3.177,3.175c1.755-0.001,3.175-1.424,3.175-3.177l-0.015-38.12
			c18.892-1.542,33.991-16.653,35.522-35.547l38.117-0.015c1.753-0.001,3.175-1.425,3.174-3.177
			C238.554,78.219,237.131,76.798,235.378,76.799z M158.563,112.506c-17.923,0.007-32.507-14.571-32.514-32.489
			c-0.007-17.922,14.566-32.506,32.489-32.513c17.919-0.007,32.506,14.566,32.513,32.488
			C191.057,97.91,176.482,112.499,158.563,112.506z"/>
	</g>
</g>
</svg>
