<?xml version="1.0" encoding="utf-8"?>
<!-- Generator: Adobe Illustrator 17.0.0, SVG Export Plug-In . SVG Version: 6.00 Build 0)  -->
<!DOCTYPE svg PUBLIC "-//W3C//DTD SVG 1.1//EN" "http://www.w3.org/Graphics/SVG/1.1/DTD/svg11.dtd">
<svg version="1.1" id="Calque_1" xmlns="http://www.w3.org/2000/svg" xmlns:xlink="http://www.w3.org/1999/xlink" x="0px" y="0px"
	 width="570.07px" height="450.877px" viewBox="0 0 570.07 450.877" enable-background="new 0 0 570.07 450.877"
	 xml:space="preserve">
<path fill="#B4CC1B" d="M372.529,272.966h142.438c10.128,0,18.339-8.21,18.339-18.338V182.69c0-10.128-8.21-18.338-18.339-18.338
	H372.529c-10.128,0-18.338,8.21-18.338,18.338v71.938C354.191,264.756,362.401,272.966,372.529,272.966z"/>
<path fill="#B4CC1B" d="M97.722,397.39h22.924c5.898,0,10.68-4.781,10.68-10.68V131.346c0-5.898-4.781-10.68-10.68-10.68H97.722
	c-5.898,0-10.68,4.781-10.68,10.68V386.71C87.042,392.608,91.824,397.39,97.722,397.39z"/>
<g>
	<path fill="none" d="M506.82,241.452v-85.966l-83.488,83.267c-2.931,2.931-7.794,2.931-10.726,0l-42.989-42.733L320.82,244.56
		v5.104h177.05C502.562,249.664,506.82,246.143,506.82,241.452z"/>
	<path fill="none" d="M361.82,361.553v-56.047c0-4.691-3.38-7.842-8.071-7.842H320.82v73h32.929
		C358.44,370.664,361.82,366.244,361.82,361.553z"/>
	<path fill="none" d="M375.07,180.097l42.733,42.13l77.96-78.563H320.82v79.666l43.434-43.233
		C367.185,177.166,372.139,177.166,375.07,180.097z M417.803,153.878c12.969,0,23.52,10.551,23.52,23.52
		c0,12.969-10.551,23.52-23.52,23.52c-12.969,0-23.52-10.551-23.52-23.52C394.283,164.429,404.834,153.878,417.803,153.878z"/>
	<path fill="none" d="M417.803,185.905c4.691,0,8.507-3.816,8.507-8.507c0-4.691-3.816-8.507-8.507-8.507
		c-4.691,0-8.507,3.816-8.507,8.507C409.296,182.089,413.112,185.905,417.803,185.905z"/>
	<path fill="none" d="M506.82,306.171c0-4.698-3.809-8.507-8.507-8.507h-79.986c-4.698,0-8.507,3.809-8.507,8.507v55.986
		c0,4.698,3.809,8.507,8.507,8.507h79.986c4.698,0,8.507-3.809,8.507-8.507V306.171z M457.837,352.664h-24.02
		c-4.146,0-7.506-3.354-7.506-7.5c0-4.145,3.361-7.5,7.506-7.5h24.02c4.146,0,7.506,3.355,7.506,7.5
		C465.343,349.31,461.982,352.664,457.837,352.664z M481.857,328.664h-48.04c-4.146,0-7.506-3.355-7.506-7.5
		c0-4.146,3.361-7.5,7.506-7.5h48.04c4.146,0,7.506,3.354,7.506,7.5C489.363,325.31,486.003,328.664,481.857,328.664z"/>
	<path fill="none" d="M529.898,40.664H320.82v17h161.037c4.146,0,7.506,3.354,7.506,7.5c0,4.145-3.361,7.5-7.506,7.5H320.82v17h234
		V65.303C554.82,51.783,543.418,40.664,529.898,40.664z M529.898,72.664h-16.013c-4.146,0-7.506-3.355-7.506-7.5
		c0-4.145,3.361-7.5,7.506-7.5h16.013c4.146,0,7.506,3.354,7.506,7.5C537.404,69.31,534.043,72.664,529.898,72.664z"/>
	<path fill="none" d="M320.82,129.664h177.05c12.969,0,22.95,10.745,22.95,23.714v88.074c0,12.969-9.981,23.212-22.95,23.212H320.82
		v17h32.929c12.969,0,23.071,10.873,23.071,23.842v56.047c0,12.969-10.102,23.111-23.071,23.111H320.82v25h209.077
		c13.52,0,24.923-10.571,24.923-24.091V104.664h-234V129.664z M520.82,361.144c0,12.99-10.53,23.52-23.52,23.52h-79.96
		c-12.99,0-23.52-10.53-23.52-23.52v-55.96c0-12.99,10.53-23.52,23.52-23.52h79.96c12.99,0,23.52,10.53,23.52,23.52V361.144z"/>
	<g>
		<path fill="#383933" d="M513.884,71.664c-3.312,0-6.006-2.691-6.006-6s2.694-6,6.006-6h16.014c3.313,0,6.007,2.691,6.007,6
			s-2.694,6-6.007,6H513.884z"/>
		<path fill="#FFFFFF" d="M529.898,61.664c2.485,0,4.506,2.019,4.506,4.5c0,2.481-2.021,4.5-4.506,4.5h-16.013
			c-2.485,0-4.506-2.019-4.506-4.5c0-2.481,2.022-4.5,4.506-4.5h15.936 M529.898,58.664h-16.013c-4.146,0-7.506,3.354-7.506,7.5
			c0,4.146,3.361,7.5,7.506,7.5h16.013c4.146,0,7.506-3.355,7.506-7.5C537.404,62.019,534.043,58.664,529.898,58.664L529.898,58.664
			z"/>
	</g>
	<g>
		<path fill="#383933" d="M416.84,383.664c-12.142,0-22.02-9.878-22.02-22.02v-55.961c0-12.142,9.878-22.02,22.02-22.02h79.961
			c12.142,0,22.02,9.878,22.02,22.02v55.961c0,12.142-9.878,22.02-22.02,22.02H416.84z M417.827,296.664
			c-5.518,0-10.007,4.489-10.007,10.007v55.986c0,5.518,4.489,10.007,10.007,10.007h79.986c5.518,0,10.007-4.489,10.007-10.007
			v-55.986c0-5.518-4.489-10.007-10.007-10.007H417.827z"/>
		<path fill="#FFFFFF" d="M496.8,285.164c11.315,0,20.52,9.205,20.52,20.52v55.96c0,11.315-9.205,20.52-20.52,20.52h-79.96
			c-11.315,0-20.52-9.205-20.52-20.52v-55.96c0-11.315,9.205-20.52,20.52-20.52H496.8 M417.828,374.164h79.986
			c6.345,0,11.507-5.162,11.507-11.507v-55.986c0-6.345-5.162-11.507-11.507-11.507h-79.986c-6.345,0-11.507,5.162-11.507,11.507
			v55.986C406.32,369.002,411.482,374.164,417.828,374.164 M496.8,282.164h-79.96c-12.99,0-23.52,10.53-23.52,23.52v55.96
			c0,12.99,10.53,23.52,23.52,23.52h79.96c12.99,0,23.52-10.53,23.52-23.52v-55.96C520.32,292.694,509.79,282.164,496.8,282.164
			L496.8,282.164z M417.828,371.164c-4.698,0-8.507-3.809-8.507-8.507v-55.986c0-4.698,3.809-8.507,8.507-8.507h79.986
			c4.698,0,8.507,3.809,8.507,8.507v55.986c0,4.698-3.809,8.507-8.507,8.507H417.828L417.828,371.164z"/>
	</g>
	<g>
		<path fill="#383933" d="M417.803,199.417c-12.142,0-22.02-9.878-22.02-22.02c0-12.142,9.878-22.02,22.02-22.02
			c12.143,0,22.021,9.878,22.021,22.02C439.823,189.54,429.945,199.417,417.803,199.417z M417.803,167.391
			c-5.518,0-10.007,4.489-10.007,10.007c0,5.518,4.489,10.007,10.007,10.007c5.519,0,10.008-4.489,10.008-10.007
			C427.811,171.88,423.321,167.391,417.803,167.391z"/>
		<path fill="#FFFFFF" d="M417.803,156.878c11.315,0,20.52,9.205,20.52,20.52c0,11.315-9.205,20.52-20.52,20.52
			s-20.52-9.205-20.52-20.52C397.283,166.083,406.489,156.878,417.803,156.878 M417.803,188.905c6.345,0,11.507-5.162,11.507-11.507
			c0-6.345-5.162-11.507-11.507-11.507s-11.507,5.162-11.507,11.507C406.296,183.743,411.458,188.905,417.803,188.905
			 M417.803,153.878c-12.969,0-23.52,10.551-23.52,23.52c0,12.969,10.551,23.52,23.52,23.52s23.52-10.551,23.52-23.52
			S430.772,153.878,417.803,153.878L417.803,153.878z M417.803,185.905c-4.691,0-8.507-3.816-8.507-8.507
			c0-4.691,3.816-8.507,8.507-8.507s8.507,3.816,8.507,8.507C426.31,182.089,422.494,185.905,417.803,185.905L417.803,185.905z"/>
	</g>
	<g>
		<path fill="#383933" d="M433.816,327.664c-3.312,0-6.006-2.691-6.006-6s2.694-6,6.006-6h48.041c3.312,0,6.006,2.691,6.006,6
			s-2.694,6-6.006,6H433.816z"/>
		<path fill="#FFFFFF" d="M481.857,317.664c2.485,0,4.506,2.019,4.506,4.5s-2.021,4.5-4.506,4.5h-48.04
			c-2.485,0-4.506-2.019-4.506-4.5s2.022-4.5,4.506-4.5h48.004 M481.857,314.664h-48.04c-4.146,0-7.506,3.354-7.506,7.5
			c0,4.145,3.361,7.5,7.506,7.5h48.04c4.146,0,7.506-3.355,7.506-7.5C489.364,318.019,486.003,314.664,481.857,314.664
			L481.857,314.664z"/>
	</g>
	<g>
		<path fill="#383933" d="M433.816,351.664c-3.312,0-6.006-2.691-6.006-6s2.694-6,6.006-6h24.021c3.312,0,6.006,2.691,6.006,6
			s-2.694,6-6.006,6H433.816z"/>
		<path fill="#FFFFFF" d="M457.837,341.664c2.485,0,4.506,2.019,4.506,4.5s-2.021,4.5-4.506,4.5h-24.02
			c-2.485,0-4.506-2.019-4.506-4.5s2.022-4.5,4.506-4.5h24.004 M457.837,338.664h-24.02c-4.146,0-7.506,3.354-7.506,7.5
			s3.361,7.5,7.506,7.5h24.02c4.146,0,7.506-3.354,7.506-7.5S461.982,338.664,457.837,338.664L457.837,338.664z"/>
	</g>
	<g>
		<path fill="#383933" d="M312.82,447.377c-3.171,0-5.75-2.583-5.75-5.757V9.256c0-3.174,2.579-5.756,5.75-5.756
			s5.75,2.583,5.75,5.756v18.658h211.327c20.564,0,36.673,16.423,36.673,37.39v320.27c0,21.417-16.451,38.841-36.673,38.841H318.57
			v17.206C318.57,444.794,315.991,447.377,312.82,447.377z M318.57,411.914h211.327c14.432,0,26.173-11.816,26.173-26.341V103.414
			h-237.5v28.5h179.3c11.801,0,20.7,9.227,20.7,21.463v88.075c0,12.315-9.093,21.962-20.7,21.962h-179.3v20.5h35.179
			c11.87,0,20.821,9.282,20.821,21.592v56.047c0,12.259-9.146,21.861-20.821,21.861H318.57V411.914z M318.57,372.914h35.179
			c5.835,0,9.321-5.776,9.321-11.361v-56.047c0-5.608-3.571-9.092-9.321-9.092H318.57V372.914z M318.57,243.831v8.083h179.3
			c5.624,0,10.2-4.693,10.2-10.462v-90.188l-86.338,86.251c-1.087,1.088-2.547,1.687-4.112,1.687c-1.564,0-3.025-0.599-4.112-1.686
			l-44.193-43.962L318.57,243.831z M318.57,227.53l46.667-46.279c1.104-1.105,2.703-1.736,4.392-1.736
			c1.628,0,3.16,0.599,4.204,1.642l43.975,43.793l82.167-82.537H318.57V227.53z M318.57,91.914h237.5v-26.61
			c0-14.518-11.496-25.89-26.173-25.89H318.57v20.5h163.287c3.174,0,5.756,2.58,5.756,5.75s-2.582,5.75-5.756,5.75H318.57V91.914z"
			/>
		<path fill="#FFFFFF" d="M312.82,5.25c2.206,0,4,1.797,4,4.006v16.908v3.5h3.5h209.577c19.583,0,34.923,15.655,34.923,35.639
			v320.27c0,20.452-15.666,37.091-34.923,37.091H320.32h-3.5v3.5v15.456c0,2.209-1.794,4.006-4,4.006s-4-1.797-4-4.006v-16.514
			v-15.013V241.45V104.837V89.824V72.81V57.797V40.783V25.77V9.256C308.82,7.047,310.615,5.25,312.82,5.25 M316.82,61.664h3.5
			h161.537c2.209,0,4.006,1.794,4.006,4s-1.797,4-4.006,4H320.32h-3.5v3.5v17v3.5h3.5h234h3.5v-3.5V65.303
			c0-15.499-12.265-27.639-27.923-27.639H320.32h-3.5v3.5v17V61.664 M316.82,133.664h3.5h177.55c10.803,0,18.95,8.475,18.95,19.714
			v88.074c0,11.334-8.324,20.212-18.95,20.212H320.32h-3.5v3.5v17v3.5h3.5h33.429c10.872,0,19.071,8.53,19.071,19.842v56.047
			c0,11.277-8.377,20.111-19.071,20.111H320.32h-3.5v3.5v25v3.5h3.5h209.577c15.397,0,27.923-12.602,27.923-28.091V105.164v-3.5
			h-3.5h-234h-3.5v3.5v25V133.664 M316.82,231.731l5.965-5.915l43.695-43.332c0.774-0.774,1.922-1.218,3.149-1.218
			c1.167,0,2.249,0.412,2.972,1.135l42.733,42.556l2.48,2.47l2.47-2.481l77.96-78.313l5.942-5.969h-8.423H320.32h-3.5v3.5v79.166
			V231.731 M417.62,237.451c-1.097,0-2.118-0.417-2.881-1.18l-42.958-42.733l-2.464-2.451l-2.468,2.446l-48.991,48.541l-1.037,1.027
			v1.459v5.604v3.5h3.5h177.55c6.589,0,11.95-5.478,11.95-12.212v-85.966v-8.444l-5.974,5.968l-83.353,83.269
			C419.738,237.034,418.717,237.451,417.62,237.451 M316.82,374.664h3.5h33.429c6.93,0,11.071-6.666,11.071-13.111v-56.047
			c0-6.586-4.346-10.842-11.071-10.842H320.32h-3.5v3.5v73V374.664 M312.82,1.75c-4.146,0-7.5,3.361-7.5,7.506V25.77v15.013v17.014
			V72.81v17.014v15.013V241.45c0,0.001,0,0.003,0,0.005v168.639v15.013v16.514c0,4.146,3.354,7.506,7.5,7.506s7.5-3.361,7.5-7.506
			v-15.456h209.577c21.798,0,38.423-18.793,38.423-40.591V65.303c0-21.798-16.624-39.139-38.423-39.139H320.32V9.256
			C320.32,5.111,316.966,1.75,312.82,1.75L312.82,1.75z M320.32,58.164v-17h209.577c13.52,0,24.423,10.619,24.423,24.139v24.861
			h-234v-17h161.537c4.146,0,7.506-3.354,7.506-7.5c0-4.145-3.361-7.5-7.506-7.5H320.32L320.32,58.164z M320.32,130.164v-25h234
			v280.409c0,13.52-10.902,24.591-24.423,24.591H320.32v-25h33.429c12.969,0,22.571-10.642,22.571-23.611v-56.047
			c0-12.969-9.602-23.342-22.571-23.342H320.32v-17h177.55c12.969,0,22.45-10.743,22.45-23.712v-88.074
			c0-12.969-9.481-23.214-22.45-23.214H320.32L320.32,130.164z M320.32,223.33v-79.166h175.443l-77.96,78.313L375.07,179.92
			c-1.443-1.444-3.438-2.155-5.441-2.155c-2.064,0-4.137,0.755-5.624,2.243L320.32,223.33L320.32,223.33z M417.62,240.951
			c1.942,0,3.884-0.733,5.349-2.199l83.351-83.267v85.966c0,4.691-3.759,8.712-8.45,8.712H320.32v-5.604l48.992-48.541
			l42.958,42.733C413.736,240.218,415.678,240.951,417.62,240.951L417.62,240.951z M320.32,371.164v-73h33.429
			c4.691,0,7.571,2.651,7.571,7.342v56.047c0,4.691-2.88,9.611-7.571,9.611H320.32L320.32,371.164z"/>
	</g>
</g>
<g>
	<defs>
		<rect id="SVGID_1_" x="0" y="1.75" width="275.501" height="437.098"/>
	</defs>
	<clipPath id="SVGID_2_">
		<use xlink:href="#SVGID_1_"  overflow="visible"/>
	</clipPath>
	<g clip-path="url(#SVGID_2_)">
		<g>
			<path fill="#383933" d="M90.885,71.318c-1.519,0-2.998-0.614-4.061-1.684c-1.079-1.071-1.693-2.552-1.693-4.071
				c0-1.519,0.614-2.999,1.684-4.061c1.072-1.08,2.552-1.693,4.07-1.693s2.999,0.614,4.062,1.684
				c1.079,1.071,1.693,2.552,1.693,4.07c0,1.519-0.614,3-1.684,4.062C93.884,70.705,92.403,71.318,90.885,71.318z"/>
			<path fill="#FFFFFF" d="M90.885,61.559c1.04,0,2.094,0.436,2.837,1.185c0.731,0.726,1.167,1.78,1.167,2.819
				c0,1.04-0.436,2.094-1.185,2.837c-0.726,0.731-1.78,1.167-2.819,1.167c-1.055,0-2.083-0.425-2.837-1.185
				c-0.731-0.726-1.167-1.78-1.167-2.82c0-1.04,0.436-2.094,1.185-2.837C88.791,61.995,89.845,61.559,90.885,61.559 M90.885,58.059
				c-1.971,0-3.912,0.801-5.303,2.201c-1.401,1.391-2.201,3.332-2.201,5.303c0,1.971,0.801,3.912,2.201,5.303
				c1.391,1.401,3.322,2.201,5.303,2.201c1.971,0,3.912-0.801,5.303-2.201c1.401-1.391,2.201-3.332,2.201-5.303
				c0-1.971-0.8-3.912-2.201-5.303C94.798,58.859,92.856,58.059,90.885,58.059L90.885,58.059z"/>
		</g>
		<g>
			<path fill="#383933" d="M114.9,71.318c-1.519,0-2.999-0.614-4.063-1.685c-1.078-1.072-1.692-2.552-1.692-4.07
				s0.614-2.998,1.685-4.062c1.071-1.079,2.552-1.693,4.07-1.693s2.998,0.614,4.061,1.684c1.08,1.072,1.694,2.552,1.694,4.07
				s-0.614,2.999-1.685,4.062C117.898,70.705,116.419,71.318,114.9,71.318z"/>
			<path fill="#FFFFFF" d="M114.9,61.559c1.04,0,2.094,0.436,2.837,1.185c0.731,0.726,1.167,1.78,1.167,2.82
				c0,1.04-0.436,2.094-1.185,2.837c-0.726,0.731-1.78,1.167-2.82,1.167s-2.094-0.436-2.837-1.185
				c-0.731-0.726-1.167-1.78-1.167-2.82s0.436-2.094,1.185-2.837C112.806,61.995,113.86,61.559,114.9,61.559 M114.9,58.059
				c-1.971,0-3.912,0.801-5.303,2.201c-1.401,1.391-2.201,3.332-2.201,5.303c0,1.971,0.8,3.912,2.201,5.303
				c1.391,1.401,3.332,2.201,5.303,2.201s3.912-0.801,5.303-2.201c1.401-1.391,2.201-3.332,2.201-5.303
				c0-1.971-0.801-3.912-2.201-5.303C118.813,58.859,116.871,58.059,114.9,58.059L114.9,58.059z"/>
		</g>
		<g>
			<path fill="#383933" d="M138.915,71.318c-1.519,0-2.998-0.614-4.061-1.684c-1.08-1.072-1.694-2.553-1.694-4.071
				s0.614-2.998,1.685-4.061c1.072-1.08,2.552-1.693,4.07-1.693s2.999,0.614,4.062,1.684c1.079,1.072,1.693,2.552,1.693,4.07
				s-0.614,2.999-1.685,4.062C141.914,70.705,140.434,71.318,138.915,71.318z"/>
			<path fill="#FFFFFF" d="M138.915,61.559c1.04,0,2.094,0.436,2.837,1.185c0.731,0.726,1.167,1.78,1.167,2.82
				c0,1.04-0.436,2.094-1.185,2.837c-0.726,0.731-1.78,1.167-2.82,1.167c-1.04,0-2.094-0.436-2.837-1.185
				c-0.731-0.726-1.167-1.78-1.167-2.82c0-1.04,0.436-2.094,1.185-2.837C136.822,61.995,137.876,61.559,138.915,61.559
				 M138.915,58.059c-1.971,0-3.912,0.801-5.303,2.201c-1.401,1.391-2.201,3.332-2.201,5.303c0,1.971,0.801,3.912,2.201,5.303
				c1.391,1.401,3.332,2.201,5.303,2.201c1.971,0,3.912-0.801,5.303-2.201c1.401-1.391,2.201-3.332,2.201-5.303
				c0-1.971-0.801-3.912-2.201-5.303C142.828,58.859,140.887,58.059,138.915,58.059L138.915,58.059z"/>
		</g>
		<g>
			<path fill="#383933" d="M170.936,71.318c-3.173,0-5.755-2.582-5.755-5.755c0-3.173,2.582-5.754,5.755-5.754h304.19
				c3.173,0,5.755,2.582,5.755,5.754c0,3.173-2.582,5.755-5.755,5.755H170.936z"/>
			<path fill="#FFFFFF" d="M475.126,61.559c2.208,0,4.005,1.797,4.005,4.005c0,2.208-1.797,4.005-4.005,4.005H170.935
				c-2.208,0-4.005-1.797-4.005-4.005c0-2.208,1.797-4.005,4.005-4.005H475.126 M475.126,58.059H170.935
				c-4.145,0-7.505,3.36-7.505,7.505c0,4.145,3.36,7.505,7.505,7.505h304.191c4.145,0,7.505-3.36,7.505-7.505
				C482.631,61.419,479.271,58.059,475.126,58.059L475.126,58.059z"/>
		</g>
		<g>
			<path fill="#383933" d="M507.146,71.318c-3.173,0-5.755-2.582-5.755-5.755c0-3.173,2.582-5.754,5.755-5.754h16.01
				c3.173,0,5.755,2.582,5.755,5.754c0,3.173-2.582,5.755-5.755,5.755H507.146z"/>
			<path fill="#FFFFFF" d="M523.156,61.559c2.208,0,4.005,1.797,4.005,4.005c0,2.208-1.797,4.005-4.005,4.005h-16.01
				c-2.208,0-4.005-1.797-4.005-4.005c0-2.208,1.797-4.005,4.005-4.005H523.156 M523.156,58.059h-16.01
				c-4.145,0-7.505,3.36-7.505,7.505c0,4.145,3.36,7.505,7.505,7.505h16.01c4.145,0,7.505-3.36,7.505-7.505
				C530.661,61.419,527.301,58.059,523.156,58.059L523.156,58.059z"/>
		</g>
		<g>
			<path fill="#383933" d="M98.891,143.364c-3.173,0-5.755-2.582-5.755-5.755s2.582-5.755,5.755-5.755h56.035
				c3.173,0,5.754,2.582,5.754,5.755s-2.581,5.755-5.754,5.755H98.891z"/>
			<path fill="#FFFFFF" d="M154.925,133.604c2.208,0,4.005,1.797,4.005,4.005s-1.797,4.005-4.005,4.005H98.89
				c-2.208,0-4.005-1.797-4.005-4.005s1.797-4.005,4.005-4.005H154.925 M154.925,130.104H98.89c-4.145,0-7.505,3.36-7.505,7.505
				s3.36,7.505,7.505,7.505h56.035c4.145,0,7.505-3.36,7.505-7.505S159.07,130.104,154.925,130.104L154.925,130.104z"/>
		</g>
		<g>
			<path fill="#383933" d="M98.891,183.389c-3.173,0-5.755-2.582-5.755-5.755c0-3.173,2.582-5.754,5.755-5.754h56.035
				c3.173,0,5.754,2.582,5.754,5.754c0,3.173-2.581,5.755-5.754,5.755H98.891z"/>
			<path fill="#FFFFFF" d="M154.925,173.629c2.208,0,4.005,1.797,4.005,4.005s-1.797,4.005-4.005,4.005H98.89
				c-2.208,0-4.005-1.797-4.005-4.005s1.797-4.005,4.005-4.005H154.925 M154.925,170.129H98.89c-4.145,0-7.505,3.36-7.505,7.505
				s3.36,7.505,7.505,7.505h56.035c4.145,0,7.505-3.36,7.505-7.505S159.07,170.129,154.925,170.129L154.925,170.129z"/>
		</g>
		<g>
			<path fill="#383933" d="M98.891,223.414c-3.173,0-5.755-2.582-5.755-5.755s2.582-5.755,5.755-5.755h56.035
				c3.173,0,5.754,2.582,5.754,5.755s-2.581,5.755-5.754,5.755H98.891z"/>
			<path fill="#FFFFFF" d="M154.925,213.654c2.208,0,4.005,1.797,4.005,4.005c0,2.208-1.797,4.005-4.005,4.005H98.89
				c-2.208,0-4.005-1.797-4.005-4.005c0-2.208,1.797-4.005,4.005-4.005H154.925 M154.925,210.154H98.89
				c-4.145,0-7.505,3.36-7.505,7.505c0,4.145,3.36,7.505,7.505,7.505h56.035c4.145,0,7.505-3.36,7.505-7.505
				C162.43,213.514,159.07,210.154,154.925,210.154L154.925,210.154z"/>
		</g>
		<g>
			<path fill="#383933" d="M98.891,263.438c-3.173,0-5.755-2.581-5.755-5.754s2.582-5.755,5.755-5.755h56.035
				c3.173,0,5.754,2.582,5.754,5.755s-2.581,5.754-5.754,5.754H98.891z"/>
			<path fill="#FFFFFF" d="M154.925,253.679c2.208,0,4.005,1.797,4.005,4.005s-1.797,4.005-4.005,4.005H98.89
				c-2.208,0-4.005-1.797-4.005-4.005s1.797-4.005,4.005-4.005H154.925 M154.925,250.179H98.89c-4.145,0-7.505,3.36-7.505,7.505
				s3.36,7.505,7.505,7.505h56.035c4.145,0,7.505-3.36,7.505-7.505S159.07,250.179,154.925,250.179L154.925,250.179z"/>
		</g>
		<g>
			<path fill="#383933" d="M283.006,143.364c-3.173,0-5.755-2.582-5.755-5.755s2.582-5.755,5.755-5.755h56.035
				c3.173,0,5.755,2.582,5.755,5.755s-2.582,5.755-5.755,5.755H283.006z"/>
			<path fill="#FFFFFF" d="M339.041,133.604c2.208,0,4.005,1.797,4.005,4.005s-1.797,4.005-4.005,4.005h-56.035
				c-2.208,0-4.005-1.797-4.005-4.005s1.797-4.005,4.005-4.005H339.041 M339.041,130.104h-56.035c-4.145,0-7.505,3.36-7.505,7.505
				s3.36,7.505,7.505,7.505h56.035c4.145,0,7.505-3.36,7.505-7.505S343.185,130.104,339.041,130.104L339.041,130.104z"/>
		</g>
		<g>
			<path fill="#383933" d="M283.006,183.389c-3.173,0-5.755-2.582-5.755-5.755c0-3.173,2.582-5.754,5.755-5.754h120.075
				c3.173,0,5.755,2.582,5.755,5.754c0,3.173-2.582,5.755-5.755,5.755H283.006z"/>
			<path fill="#FFFFFF" d="M403.081,173.629c2.208,0,4.005,1.797,4.005,4.005s-1.797,4.005-4.005,4.005H283.006
				c-2.208,0-4.005-1.797-4.005-4.005s1.797-4.005,4.005-4.005H403.081 M403.081,170.129H283.006c-4.145,0-7.505,3.36-7.505,7.505
				s3.36,7.505,7.505,7.505h120.075c4.145,0,7.505-3.36,7.505-7.505S407.226,170.129,403.081,170.129L403.081,170.129z"/>
		</g>
		<g>
			<path fill="#383933" d="M283.006,223.414c-3.173,0-5.755-2.582-5.755-5.755s2.582-5.755,5.755-5.755h88.055
				c3.173,0,5.755,2.582,5.755,5.755s-2.582,5.755-5.755,5.755H283.006z"/>
			<path fill="#FFFFFF" d="M371.061,213.654c2.208,0,4.005,1.796,4.005,4.005s-1.797,4.005-4.005,4.005h-88.055
				c-2.208,0-4.005-1.797-4.005-4.005s1.797-4.005,4.005-4.005H371.061 M371.061,210.154h-88.055c-4.145,0-7.505,3.36-7.505,7.505
				c0,4.145,3.36,7.505,7.505,7.505h88.055c4.145,0,7.505-3.36,7.505-7.505C378.566,213.514,375.206,210.154,371.061,210.154
				L371.061,210.154z"/>
		</g>
		<g>
			<path fill="#383933" d="M283.006,263.438c-3.173,0-5.755-2.581-5.755-5.754s2.582-5.755,5.755-5.755h192.12
				c3.173,0,5.755,2.582,5.755,5.755s-2.582,5.754-5.755,5.754H283.006z"/>
			<path fill="#FFFFFF" d="M475.126,253.679c2.208,0,4.005,1.796,4.005,4.005s-1.797,4.005-4.005,4.005h-192.12
				c-2.208,0-4.005-1.796-4.005-4.005s1.797-4.005,4.005-4.005H475.126 M475.126,250.179h-192.12c-4.145,0-7.505,3.36-7.505,7.505
				s3.36,7.505,7.505,7.505h192.12c4.145,0,7.505-3.36,7.505-7.505S479.271,250.179,475.126,250.179L475.126,250.179z"/>
		</g>
		<g>
			<path fill="#383933" d="M234.976,343.489c-3.173,0-5.755-2.582-5.755-5.755s2.582-5.755,5.755-5.755h16.01
				c3.173,0,5.755,2.582,5.755,5.755s-2.582,5.755-5.755,5.755H234.976z"/>
			<path fill="#FFFFFF" d="M250.986,333.73c2.208,0,4.005,1.797,4.005,4.005s-1.797,4.005-4.005,4.005h-16.01
				c-2.208,0-4.005-1.797-4.005-4.005s1.797-4.005,4.005-4.005H250.986 M250.986,330.23h-16.01c-4.145,0-7.505,3.36-7.505,7.505
				s3.36,7.505,7.505,7.505h16.01c4.145,0,7.505-3.36,7.505-7.505S255.13,330.23,250.986,330.23L250.986,330.23z"/>
		</g>
		<g>
			<path fill="#383933" d="M234.976,383.515c-3.173,0-5.755-2.582-5.755-5.755s2.582-5.755,5.755-5.755h16.01
				c3.173,0,5.755,2.582,5.755,5.755s-2.582,5.755-5.755,5.755H234.976z"/>
			<path fill="#FFFFFF" d="M250.986,373.755c2.208,0,4.005,1.797,4.005,4.005s-1.797,4.005-4.005,4.005h-16.01
				c-2.208,0-4.005-1.797-4.005-4.005s1.797-4.005,4.005-4.005H250.986 M250.986,370.255h-16.01c-4.145,0-7.505,3.36-7.505,7.505
				s3.36,7.505,7.505,7.505h16.01c4.145,0,7.505-3.36,7.505-7.505S255.13,370.255,250.986,370.255L250.986,370.255z"/>
		</g>
		<g>
			<path fill="#383933" d="M283.006,343.489c-3.173,0-5.755-2.582-5.755-5.755s2.582-5.755,5.755-5.755h16.01
				c3.173,0,5.755,2.582,5.755,5.755s-2.582,5.755-5.755,5.755H283.006z"/>
			<path fill="#FFFFFF" d="M299.016,333.73c2.208,0,4.005,1.797,4.005,4.005s-1.797,4.005-4.005,4.005h-16.01
				c-2.208,0-4.005-1.797-4.005-4.005s1.797-4.005,4.005-4.005H299.016 M299.016,330.23h-16.01c-4.145,0-7.505,3.36-7.505,7.505
				s3.36,7.505,7.505,7.505h16.01c4.145,0,7.505-3.36,7.505-7.505S303.16,330.23,299.016,330.23L299.016,330.23z"/>
		</g>
		<g>
			<path fill="#383933" d="M283.006,383.515c-3.173,0-5.755-2.582-5.755-5.755s2.582-5.755,5.755-5.755h32.02
				c3.173,0,5.755,2.582,5.755,5.755s-2.582,5.755-5.755,5.755H283.006z"/>
			<path fill="#FFFFFF" d="M315.026,373.755c2.208,0,4.005,1.797,4.005,4.005s-1.797,4.005-4.005,4.005h-32.02
				c-2.208,0-4.005-1.797-4.005-4.005s1.797-4.005,4.005-4.005H315.026 M315.026,370.255h-32.02c-4.145,0-7.505,3.36-7.505,7.505
				s3.36,7.505,7.505,7.505h32.02c4.145,0,7.505-3.36,7.505-7.505S319.17,370.255,315.026,370.255L315.026,370.255z"/>
		</g>
		<g>
			<path fill="#383933" d="M331.036,343.489c-3.173,0-5.755-2.582-5.755-5.755s2.582-5.755,5.755-5.755h120.075
				c3.173,0,5.755,2.582,5.755,5.755s-2.582,5.755-5.755,5.755H331.036z"/>
			<path fill="#FFFFFF" d="M451.111,333.73c2.208,0,4.005,1.797,4.005,4.005s-1.797,4.005-4.005,4.005H331.036
				c-2.208,0-4.005-1.797-4.005-4.005s1.797-4.005,4.005-4.005H451.111 M451.111,330.23H331.036c-4.145,0-7.505,3.36-7.505,7.505
				s3.36,7.505,7.505,7.505h120.075c4.145,0,7.505-3.36,7.505-7.505S455.256,330.23,451.111,330.23L451.111,330.23z"/>
		</g>
		<g>
			<path fill="#383933" d="M347.046,383.515c-3.173,0-5.755-2.582-5.755-5.755s2.582-5.755,5.755-5.755h48.03
				c3.173,0,5.755,2.582,5.755,5.755s-2.582,5.755-5.755,5.755H347.046z"/>
			<path fill="#FFFFFF" d="M395.076,373.755c2.208,0,4.005,1.797,4.005,4.005s-1.797,4.005-4.005,4.005h-48.03
				c-2.208,0-4.005-1.797-4.005-4.005s1.797-4.005,4.005-4.005H395.076 M395.076,370.255h-48.03c-4.145,0-7.505,3.36-7.505,7.505
				s3.36,7.505,7.505,7.505h48.03c4.145,0,7.505-3.36,7.505-7.505S399.221,370.255,395.076,370.255L395.076,370.255z"/>
		</g>
		<g>
			<path fill="#383933" d="M234.976,143.364c-3.173,0-5.755-2.582-5.755-5.755s2.582-5.755,5.755-5.755h16.01
				c3.173,0,5.755,2.582,5.755,5.755s-2.582,5.755-5.755,5.755H234.976z"/>
			<path fill="#FFFFFF" d="M250.986,133.604c2.208,0,4.005,1.797,4.005,4.005s-1.797,4.005-4.005,4.005h-16.01
				c-2.208,0-4.005-1.797-4.005-4.005s1.797-4.005,4.005-4.005H250.986 M250.986,130.104h-16.01c-4.145,0-7.505,3.36-7.505,7.505
				s3.36,7.505,7.505,7.505h16.01c4.145,0,7.505-3.36,7.505-7.505S255.13,130.104,250.986,130.104L250.986,130.104z"/>
		</g>
		<g>
			<path fill="#383933" d="M234.976,183.389c-3.173,0-5.755-2.582-5.755-5.755c0-3.173,2.582-5.754,5.755-5.754h16.01
				c3.173,0,5.755,2.582,5.755,5.754c0,3.173-2.582,5.755-5.755,5.755H234.976z"/>
			<path fill="#FFFFFF" d="M250.986,173.629c2.208,0,4.005,1.797,4.005,4.005s-1.797,4.005-4.005,4.005h-16.01
				c-2.208,0-4.005-1.797-4.005-4.005s1.797-4.005,4.005-4.005H250.986 M250.986,170.129h-16.01c-4.145,0-7.505,3.36-7.505,7.505
				s3.36,7.505,7.505,7.505h16.01c4.145,0,7.505-3.36,7.505-7.505S255.13,170.129,250.986,170.129L250.986,170.129z"/>
		</g>
		<g>
			<path fill="#383933" d="M234.976,223.414c-3.173,0-5.755-2.582-5.755-5.755s2.582-5.755,5.755-5.755h16.01
				c3.173,0,5.755,2.582,5.755,5.755s-2.582,5.755-5.755,5.755H234.976z"/>
			<path fill="#FFFFFF" d="M250.986,213.654c2.208,0,4.005,1.797,4.005,4.005c0,2.208-1.797,4.005-4.005,4.005h-16.01
				c-2.208,0-4.005-1.797-4.005-4.005c0-2.208,1.797-4.005,4.005-4.005H250.986 M250.986,210.154h-16.01
				c-4.145,0-7.505,3.36-7.505,7.505c0,4.145,3.36,7.505,7.505,7.505h16.01c4.145,0,7.505-3.36,7.505-7.505
				C258.49,213.514,255.13,210.154,250.986,210.154L250.986,210.154z"/>
		</g>
		<g>
			<path fill="#383933" d="M234.976,263.438c-3.173,0-5.755-2.581-5.755-5.754s2.582-5.755,5.755-5.755h16.01
				c3.173,0,5.755,2.582,5.755,5.755s-2.582,5.754-5.755,5.754H234.976z"/>
			<path fill="#FFFFFF" d="M250.986,253.679c2.208,0,4.005,1.797,4.005,4.005s-1.797,4.005-4.005,4.005h-16.01
				c-2.208,0-4.005-1.797-4.005-4.005s1.797-4.005,4.005-4.005H250.986 M250.986,250.179h-16.01c-4.145,0-7.505,3.36-7.505,7.505
				s3.36,7.505,7.505,7.505h16.01c4.145,0,7.505-3.36,7.505-7.505S255.13,250.179,250.986,250.179L250.986,250.179z"/>
		</g>
		<g>
			<path fill="#383933" d="M98.891,303.464c-3.173,0-5.755-2.582-5.755-5.755s2.582-5.755,5.755-5.755h56.035
				c3.173,0,5.754,2.582,5.754,5.755s-2.581,5.755-5.754,5.755H98.891z"/>
			<path fill="#FFFFFF" d="M154.925,293.705c2.208,0,4.005,1.797,4.005,4.005s-1.797,4.005-4.005,4.005H98.89
				c-2.208,0-4.005-1.797-4.005-4.005s1.797-4.005,4.005-4.005H154.925 M154.925,290.205H98.89c-4.145,0-7.505,3.36-7.505,7.505
				s3.36,7.505,7.505,7.505h56.035c4.145,0,7.505-3.36,7.505-7.505S159.07,290.205,154.925,290.205L154.925,290.205z"/>
		</g>
		<g>
			<path fill="#383933" d="M98.891,343.489c-3.173,0-5.755-2.582-5.755-5.755s2.582-5.755,5.755-5.755h56.035
				c3.173,0,5.754,2.582,5.754,5.755s-2.581,5.755-5.754,5.755H98.891z"/>
			<path fill="#FFFFFF" d="M154.925,333.73c2.208,0,4.005,1.797,4.005,4.005s-1.797,4.005-4.005,4.005H98.89
				c-2.208,0-4.005-1.797-4.005-4.005s1.797-4.005,4.005-4.005H154.925 M154.925,330.23H98.89c-4.145,0-7.505,3.36-7.505,7.505
				s3.36,7.505,7.505,7.505h56.035c4.145,0,7.505-3.36,7.505-7.505S159.07,330.23,154.925,330.23L154.925,330.23z"/>
		</g>
		<g>
			<path fill="#383933" d="M98.891,383.515c-3.173,0-5.755-2.582-5.755-5.755s2.582-5.755,5.755-5.755h56.035
				c3.173,0,5.754,2.582,5.754,5.755s-2.581,5.755-5.754,5.755H98.891z"/>
			<path fill="#FFFFFF" d="M154.925,373.755c2.208,0,4.005,1.797,4.005,4.005s-1.797,4.005-4.005,4.005H98.89
				c-2.208,0-4.005-1.797-4.005-4.005s1.797-4.005,4.005-4.005H154.925 M154.925,370.255H98.89c-4.145,0-7.505,3.36-7.505,7.505
				s3.36,7.505,7.505,7.505h56.035c4.145,0,7.505-3.36,7.505-7.505S159.07,370.255,154.925,370.255L154.925,370.255z"/>
		</g>
		<g>
			<path fill="#383933" d="M90.885,423.539c-20.829,0-37.774-16.945-37.774-37.774V65.563c0-20.829,16.945-37.774,37.774-37.774
				h432.271c20.829,0,37.774,16.945,37.774,37.774v320.201c0,20.829-16.945,37.774-37.774,37.774H90.885z M200.705,412.03h322.451
				c14.483,0,26.266-11.782,26.266-26.266v-82.301H200.705V412.03z M64.62,385.765c0,14.483,11.782,26.266,26.265,26.266h98.311
				V103.338H64.62V385.765z M200.705,291.954h348.717V103.338H200.705V291.954z M90.885,39.298
				c-14.482,0-26.265,11.782-26.265,26.265v26.266h484.802V65.563c0-14.483-11.782-26.265-26.266-26.265H90.885z"/>
			<path fill="#FFFFFF" d="M523.156,29.539c19.864,0,36.025,16.161,36.025,36.025v320.201c0,19.864-16.161,36.025-36.025,36.025
				H90.885c-19.864,0-36.025-16.161-36.025-36.025V65.564c0-19.864,16.161-36.025,36.025-36.025H523.156 M62.87,93.579h3.5h481.302
				h3.5v-3.5V65.564c0-15.448-12.568-28.015-28.015-28.015H90.885c-15.448,0-28.015,12.568-28.015,28.015v24.515V93.579
				 M198.955,293.705h3.5h345.217h3.5v-3.5V105.088v-3.5h-3.5H202.455h-3.5v3.5v185.116V293.705 M90.885,413.78h96.561h3.5v-3.5
				V105.088v-3.5h-3.5H66.37h-3.5v3.5v280.676C62.87,401.212,75.438,413.78,90.885,413.78 M198.955,413.78h3.5h320.701
				c15.448,0,28.015-12.568,28.015-28.015v-80.551v-3.5h-3.5H202.455h-3.5v3.5V410.28V413.78 M523.156,26.039H90.885
				c-21.794,0-39.525,17.731-39.525,39.525v320.201c0,21.794,17.731,39.525,39.525,39.525h432.271
				c21.794,0,39.525-17.731,39.525-39.525V65.564C562.681,43.77,544.95,26.039,523.156,26.039L523.156,26.039z M66.37,90.079V65.564
				c0-13.517,10.998-24.515,24.515-24.515h432.271c13.517,0,24.515,10.998,24.515,24.515v24.515H66.37L66.37,90.079z
				 M202.455,290.205V105.088h345.217v185.116H202.455L202.455,290.205z M90.885,410.28c-13.518,0-24.515-10.998-24.515-24.515
				V105.088h121.076V410.28H90.885L90.885,410.28z M202.455,410.28V305.214h345.217v80.551c0,13.518-10.998,24.515-24.515,24.515
				H202.455L202.455,410.28z"/>
		</g>
	</g>
</g>
</svg>
