<?xml version="1.0" encoding="utf-8"?>
<!-- Generator: Adobe Illustrator 18.0.0, SVG Export Plug-In . SVG Version: 6.00 Build 0)  -->
<!DOCTYPE svg PUBLIC "-//W3C//DTD SVG 1.1//EN" "http://www.w3.org/Graphics/SVG/1.1/DTD/svg11.dtd">
<svg version="1.1" id="Capa_1" xmlns="http://www.w3.org/2000/svg" xmlns:xlink="http://www.w3.org/1999/xlink" x="0px" y="0px"
	 viewBox="220.5 59.2 1157 1101.7" enable-background="new 220.5 59.2 1157 1101.7" xml:space="preserve">
<g>
	<path fill="#3BB6B3" d="M1360,859.6v-89c10.3-5.2,17.5-15.9,17.5-28.2c0-13-7.9-24.2-19.3-29c-6.1-47.7-28.1-92.1-62.7-126.3
		c-34-33.6-77.7-54.7-124.6-60.7v-210c0-49.2-18.4-96.3-51.7-132.6c-29.3-31.9-67.8-53-109.8-60.5v-13.5c0-28-22.8-50.7-50.7-50.7
		H639.4c-28,0-50.7,22.7-50.7,50.7v13.5c-42,7.5-80.5,28.6-109.8,60.5c-33.4,36.3-51.8,83.4-51.8,132.6v210
		c-46.9,5.9-90.6,27.1-124.6,60.7c-34.6,34.2-56.6,78.6-62.7,126.3c-11.3,4.8-19.3,16-19.3,29c0,12.3,7.1,23,17.5,28.2v89
		c-10.3,5.2-17.5,15.9-17.5,28.2s7.1,23,17.5,28.2v24.8c0,57.2,46.5,103.7,103.7,103.7h85.9c5.4,65.1,60.1,116.4,126.5,116.4h490
		c66.4,0,121.1-51.3,126.5-116.4h85.9c57.2,0,103.7-46.5,103.7-103.7v-24.8c10.3-5.2,17.5-15.9,17.5-28.2c0-8.4-3.3-16.4-9.2-22.3
		C1365.8,863.1,1363,861.1,1360,859.6z M301,919.4h126v62h-85.5c-22.4,0-40.6-18.2-40.6-40.6V919.4z M427.1,773.9v82.4H301v-82.4
		H427.1z M427.1,590.2v120.7H304C316.3,649.3,365.3,601.2,427.1,590.2z M1044,1097.8H554c-35.2,0-63.9-28.7-63.9-63.9V430.5
		c23.2,29.1,50.5,54.7,81.6,76.6c21.3,15,44.1,27.9,67.8,38.4v51.4c0,17.4,14.1,31.5,31.5,31.5s31.5-14.1,31.5-31.5v-29.8
		C733.9,575,766.3,579,799,579s65.1-4,96.5-11.9v29.8c0,17.4,14.1,31.5,31.5,31.5s31.5-14.1,31.5-31.5v-51.4
		c23.7-10.5,46.5-23.4,67.8-38.4c31.1-21.9,58.3-47.5,81.6-76.6l0,603.4C1107.9,1069.2,1079.2,1097.8,1044,1097.8z M895.5,357.7
		c-15.6,1.9-27.6,15.2-27.6,31.3v55.3c0,16.1,12.1,29.4,27.6,31.3v26.2c-31.2,9.5-63.6,14.2-96.5,14.2s-65.3-4.8-96.5-14.2v-26.2
		c15.6-1.9,27.6-15.2,27.6-31.3V389c0-16.1-12.1-29.4-27.6-31.3V183.3h193V357.7z M990,455.6c-3,2.1-6.1,4.2-9.2,6.2
		c3.4-5,5.3-11.1,5.3-17.5V389c0-16.1-12.1-29.4-27.6-31.3V183.3h16.2c70.3,0,127.9,54,132.8,123.7
		C1083.6,366.9,1043,418.2,990,455.6z M639.5,357.7c-15.6,1.9-27.6,15.2-27.6,31.3v55.3c0,6.5,2,12.5,5.3,17.5
		c-3.1-2-6.1-4.1-9.1-6.2c-53-37.3-93.6-88.7-117.5-148.6c4.9-69.6,62.5-123.7,132.8-123.7h16.2V357.7z M1170.9,919.4h126v21.4
		c0,22.4-18.2,40.6-40.6,40.6h-85.5V919.4z M1170.9,856.3v-82.4h126v82.4H1170.9z M1170.9,710.9V590.2
		c61.8,11.1,110.8,59.1,123,120.7H1170.9z"/>
	<path fill="#3BB6B3" d="M1009.1,684.7H588.9c-24.2,0-44,19.7-44,44v189.1c0,81.1,66,147.1,147.1,147.1h214
		c81.1,0,147.1-66,147.1-147.1V728.7C1053.1,704.4,1033.4,684.7,1009.1,684.7z M608,917.8v-48.1c21.2,13.4,45.9,20.7,71.7,20.7h87.8
		v52.8c0,17.4,14.1,31.5,31.5,31.5s31.5-14.1,31.5-31.5v-52.8h87.8c25.7,0,50.5-7.3,71.7-20.7v48.1c0,46.3-37.7,84.1-84.1,84.1H692
		C645.7,1001.8,608,964.1,608,917.8z M821.3,781.2c-6-6-13.9-9.2-22.3-9.2c-17.4,0-31.5,14.1-31.5,31.5v23.7h-87.8
		c-39.5,0-71.7-32.1-71.7-71.7v-7.8H990v7.8c0,39.5-32.1,71.7-71.7,71.7h-87.8v-23.7C830.5,795.1,827.3,787.2,821.3,781.2z"/>
</g>
</svg>
