<svg xmlns="http://www.w3.org/2000/svg" xmlns:xlink="http://www.w3.org/1999/xlink" width="141.7" height="141.7" xml:space="preserve">
    <defs>
        <path id="a" d="M0 0h141.7v141.7H0z"/>
    </defs>
    <clipPath id="b">
        <use xlink:href="#a" overflow="visible"/>
    </clipPath>
    <path clip-path="url(#b)" fill="#1B1237" d="M20.8 80.8c.3.301.6.7.7 1.2l4.9 16.699L31.3 82c.1-.5.4-.899.7-1.2.3-.3.7-.399 1.3-.399.5 0 1 .2 1.4.5.4.299.6.7.7 1.2l3.4 20.8-2.7.5-2.8-19.5-5.5 18.6h-2.7l-5.5-18.6-2.7 18.299c-.1.401-.2.701-.5.901-.3.199-.6.3-1 .3s-.7-.101-.9-.3c-.3-.2-.4-.5-.4-.901v-.5l3.3-19.599c.1-.5.3-.901.7-1.2.4-.3.8-.5 1.4-.5.6-.001 1 .2 1.3.399m29.9 0c.3.301.5.7.7 1.301l7.9 20.6-2.7.8-2-5.2H44.3l-1.6 4.2c-.1.3-.3.5-.5.7-.2.199-.5.3-.8.3-.4 0-.7-.101-.9-.399-.2-.301-.4-.601-.4-.9 0-.2.1-.5.2-.801L47.5 82c.2-.399.4-.8.7-1.2.3-.3.7-.5 1.2-.5.6.099 1 .301 1.3.5M53.9 96l-4.4-12.3L45 96h8.9zm7.2-14.3c0-.4.1-.7.4-.9.3-.199.6-.399.9-.399.4 0 .7.1 1 .399.3.301.4.601.4 1v8.4l10.3-9.7 1.9 1.8-9.7 9.1 10.2 9.899c.3.301.5.7.5 1.101 0 .399-.1.6-.4.899-.3.301-.5.301-.899.301-.4 0-.8-.2-1.101-.5L63.8 92.4v10.8h-2.7V81.7zm18.3.1c0-.399.1-.699.399-1 .3-.3.601-.399 1-.399.4 0 .7.1.9.399.2.301.399.601.399 1v21.399H79.4V81.8zm7.6 0c0-.399.1-.699.4-1 .3-.3.6-.399 1-.399.5 0 .899.2 1.1.6l12.1 17.601V81.8c0-.399.101-.699.4-1 .3-.3.6-.399.9-.399.399 0 .699.1 1 .399.3.301.399.601.399 1v20.399c0 .401-.1.701-.399 1-.301.301-.601.401-1 .401-.5 0-.9-.2-1.101-.601L89.7 85.3v17.899H87V81.8zm30.4-1c.3.301.5.7.699 1.301l7.9 20.6-2.7.8-2-5.2H111l-1.6 4.2c-.101.3-.301.5-.5.7-.2.199-.5.3-.801.3-.399 0-.699-.101-.899-.399-.2-.301-.4-.601-.4-.9 0-.2.101-.5.2-.801L114.2 82c.2-.399.399-.8.7-1.2.3-.3.699-.5 1.199-.5a3.2 3.2 0 0 1 1.301.5m3.2 15.2-4.4-12.3-4.5 12.3h8.9zm-93.3 33.9c-.3.398-.6.8-1 1.1-.4.4-.8.601-1.3.9-.5.2-1 .398-1.5.6-.5.2-1.1.299-1.6.299-.5.102-1.1.102-1.5.102-1.9 0-3.6-.4-5.2-1.2-1.5-.8-2.8-2-3.7-3.5-.7-1-1.2-2.1-1.6-3.3s-.6-2.4-.6-3.602c0-1.5.2-2.898.7-4.198.5-1.302 1.1-2.5 2-3.5.8-1 1.9-1.9 3.1-2.601 1.2-.699 2.5-1.1 4-1.199h.7c.6 0 1.2.1 1.9.199.7.101 1.4.301 2 .601.7.3 1.3.5 1.9.899.6.301 1.1.7 1.5 1.101.1.1.2.198.3.399.1.101 0 .301 0 .4l-1.6 3.3c-.1.2-.4.3-.6.4-.3 0-.5 0-.8-.101-.6-.5-1.2-.899-1.9-1.199-.6-.301-1.3-.5-2-.5-.2 0-.4 0-.7.1-.6.1-1.2.4-1.7.7-.5.399-.9.8-1.3 1.3-.3.5-.6 1.1-.8 1.8-.2.7-.3 1.4-.3 2.101 0 .8.1 1.5.3 2.199.2.7.4 1.4.8 1.9.4.6.8 1 1.4 1.3s1.2.5 1.9.5c.5 0 1.1-.1 1.5-.3.5-.2.9-.4 1.3-.5.3-.2.7-.3 1-.4.3-.1.7-.199 1-.199.8 0 1.5.199 2 .699.6.5.8 1.101.8 1.9 0 .701-.1 1.1-.4 1.5m21.9-4.1c-.5 1.4-1.3 2.601-2.3 3.7s-2.1 1.9-3.4 2.5c-1.3.6-2.8.9-4.4.9s-3.1-.3-4.4-.9-2.5-1.5-3.4-2.5c-1-1.1-1.7-2.3-2.3-3.7-.5-1.399-.8-2.899-.8-4.399 0-1.601.3-3 .8-4.4.5-1.399 1.3-2.6 2.3-3.7 1-1.1 2.1-1.899 3.4-2.5 1.3-.6 2.8-.899 4.4-.899s3 .3 4.4.899c1.3.601 2.5 1.5 3.4 2.5 1 1.101 1.7 2.301 2.3 3.7.5 1.4.8 2.9.8 4.4s-.3 2.999-.8 4.399m-6-6.6c-.2-.8-.4-1.4-.8-2-.4-.6-.8-1.1-1.4-1.4-.6-.399-1.2-.5-2-.5s-1.4.2-1.9.5c-.5.4-1 .801-1.3 1.4-.3.6-.6 1.2-.8 2-.2.7-.3 1.5-.3 2.2 0 .8.1 1.5.3 2.2.2.699.4 1.399.8 2 .4.6.8 1.1 1.3 1.399.5.4 1.2.5 1.9.5s1.4-.2 1.9-.5c.6-.3 1-.8 1.4-1.399.4-.601.7-1.2.8-1.9.2-.7.3-1.5.3-2.2.1-.8 0-1.5-.2-2.3M66 133.4c-.2.099-.4.099-.7.099-.2 0-.4-.099-.6-.199l-5.6-7.399V130c0 .401-.1.801-.2 1.201-.2.4-.4.7-.7.9-.3.3-.6.5-1 .6-.4.2-.8.2-1.2.2s-.8-.101-1.2-.2c-.4-.201-.7-.4-1-.701-.3-.299-.5-.599-.7-1-.2-.398-.3-.799-.3-1.199v-19.199c0-.2.1-.4.3-.5.2-.102.4-.2.7-.102h7.7c1 .201 2 .401 2.9.801.9.4 1.7.801 2.4 1.4.7.6 1.2 1.299 1.6 2.2.4.899.6 1.899.6 3 0 .8-.1 1.5-.4 2.099-.2.602-.6 1.201-1 1.701s-.9.9-1.5 1.299c-.6.401-1.2.602-1.8.801l5.2 6.501c.2.198.3.3.2.5-.1.198-.2.3-.4.399L66 133.4zm-3.5-17.299c-.3-.4-.6-.602-1.1-.602h-2.2v3.701h2.3c.4 0 .7-.201 1-.5.3-.4.4-.8.4-1.3s-.1-1-.4-1.299m26.6 4.799c-.399.899-.899 1.7-1.6 2.399-.7.7-1.5 1.2-2.4 1.601-.899.399-1.899.6-3 .699-.199 0-.699.101-1.3.101h-1.7v1.6c0 .601 0 1.101-.1 1.7 0 .6-.1 1.1-.2 1.5-.1.5-.2.8-.3 1-.2.4-.6.7-1 1s-.9.4-1.5.4c-.4 0-.9-.101-1.2-.301a3.582 3.582 0 0 1-1-.699c-.3-.301-.5-.601-.7-1-.199-.4-.199-.801-.199-1.2v-19.1c0-.2.1-.301.3-.5.2-.101.399-.2.6-.2H78.4c.899 0 1.899 0 2.8.1.899.101 1.8.2 2.7.5 1.399.3 2.699 1 3.699 2s1.7 2.3 1.9 3.9c.1.399.1.8.1 1.3.001 1.3-.199 2.3-.499 3.2m-6.3-4.7c-.399-.4-.8-.7-1.399-.7h-2.2v4.7h2.2c.5 0 1-.2 1.399-.7.4-.5.601-1 .601-1.6-.001-.7-.201-1.2-.601-1.7m28.3 11.2c-.5 1.2-1.199 2.1-2.1 3-.9.8-1.9 1.398-3.1 1.898-1.2.401-2.5.602-3.9.602s-2.7-.2-3.9-.602c-1.199-.398-2.3-1-3.1-1.898-.8-.9-1.6-1.8-2.1-3s-.801-2.5-.801-4v-12.8c0-.2.101-.302.301-.5.2-.1.4-.2.7-.2h4.5c.2 0 .5.1.601.2.2.1.3.3.3.5v12.9c0 1.2.3 2.2 1 2.9s1.5 1.1 2.6 1.1c1.101 0 1.9-.399 2.601-1.1.6-.7 1-1.7 1-2.9v-10.701c0-.398.1-.799.2-1.198.199-.4.399-.7.699-1 .301-.302.601-.5 1-.7.4-.2.801-.2 1.2-.2.4 0 .9.099 1.2.3.4.2.7.4 1 .7s.5.599.7 1c.2.4.2.8.2 1.2v10.6c-.101 1.499-.301 2.798-.801 3.899m14.7-8.299c.9.3 1.7.8 2.5 1.3s1.4 1.2 1.9 2 .7 1.7.7 2.899c0 .801-.101 1.5-.4 2.301-.3.699-.6 1.398-1.1 2.1-.801 1.101-1.9 2-3.101 2.5s-2.5.799-3.899.799c-.5 0-1.101-.099-1.801-.198-.699-.101-1.399-.302-2.199-.5-.7-.2-1.5-.4-2.101-.7-.7-.2-1.3-.5-1.7-.7-.199 0-.3-.1-.399-.3-.101-.2-.101-.3-.101-.4.101-.5.2-1 .301-1.399.1-.4.199-.7.3-1.101 0-.201.1-.3.1-.399 0-.101.101-.2.101-.302 0-.099.1-.198.1-.299 0-.1.1-.201.1-.3v-.2.101-.103c0-.3.101-.399.4-.6.3-.102.6-.102.9 0 .1 0 .3.1.5.2.199.1.5.198.8.3.3.1.6.2.8.3.3.099.5.2.7.2.6.2 1.2.398 1.7.6.5.2 1.1.299 1.5.299.199 0 .5-.099.699-.198.2-.101.5-.2.601-.4.2-.2.3-.401.5-.6.2-.2.2-.5.2-.802a.778.778 0 0 0-.2-.5c-.101-.099-.3-.299-.5-.398-.2-.102-.4-.2-.601-.3-.199-.101-.399-.2-.5-.2l-1.5-.602c-.8-.299-1.6-.599-2.3-.898-.8-.3-1.5-.7-2.1-1.2a6.514 6.514 0 0 1-1.5-1.8c-.4-.7-.601-1.602-.601-2.7 0-1.1.2-2.1.7-3 .5-.901 1.101-1.6 1.9-2.2.8-.6 1.7-1 2.6-1.399 1-.302 2-.5 3-.5.5 0 1.2.1 1.9.198.7.102 1.5.401 2.2.701.699.299 1.3.7 1.8 1.2s.7 1.099.7 1.8c0 .7-.301 1.299-.801 1.9-.5.5-1.199.8-2 .8-.399 0-.8-.1-1.199-.2-.4-.1-.7-.3-1.101-.399-.399-.101-.7-.302-1.1-.4-.4-.1-.8-.2-1.2-.2-.3 0-.6.101-.8.299-.3.201-.4.5-.4.901 0 .2.101.4.2.599.1.201.3.302.4.401l.6.3c.2.101.4.2.6.2.101.099.2.099.301.099l-.099-.101h.101c1.099.5 1.999.8 2.899 1.201"/>
    <path clip-path="url(#b)" fill="#D0DD2A" d="M98.9 55.9c-2.4-1.9-4.7-3.8-7-5.8-1-.8-1-.9-.4-2 1.4-2.5 2.4-5 3-7.8.9-4.2.8-8.4-.6-12.6-.5-1.4-1.101-2.6-1.9-3.8-.2-.4-.4-.7 0-1.1 1.1-1.1 2.1-2.3 3.3-3.5 1.7-1.7 3.4-3.4 5-5.2 1.7-2 1.3-4.4-.899-5.7-.7-.4-1.301-.7-2-1.1-1.7-.9-3.5-.8-5.2-.1-1.4.6-2.4 1.6-3.4 2.7L82.9 15.6c-.4.2-.5.3-.801.3-.399 0-.699-.1-1.1-.2C66.299 13.4 58 22 58 22c-.3.4-.701.3-1.1 0-1-.8-2.101-1.6-3.101-2.4C52.2 18.3 51 18.1 49.2 19.2c-1.1.7-1.8 1.8-2.7 2.7-.4.5-.8 1-1.1 1.6-.9 1.5-.8 3.1.399 4.4C46.9 29 48 30 49.101 31.1c.4.4.5.8.199 1.2-.399.7-.699 1.4-1 2-2.6 5.9-3.3 11.9-1.199 18.1.3.9.1 1.5-.5 2.1-1.801 1.9-3.6 3.5-5 5.5-1.301 1.7-1.301 3.7-.1 5.4.4.6.9 1.2 1.4 1.8 1.3 1.5 3.399 1.6 4.899.2 1.601-1.4 3-3 4.5-4.4 1.801-1.7 1.201-1.7 3.5-.5 3.7 1.8 7.6 2.4 11.6 2.1 4.3-.4 8.199-1.9 12-4 1.1-.6 1.199-.6 2.1.3l1.6 1.4c1.5 1.4 3 2.8 4.601 4.1 2.1 1.8 5.3 1.9 7.5.3 1.5-1.1 2.8-2.3 4.1-3.6 1.999-2.1 1.999-5.3-.401-7.2m-21-7.3c-5.5 5.7-15.3 7.8-20.4 2.2-5.4-5.8-3.5-13.2.4-18.5 3.899-5.3 13.6-11 21.1-5.2 7.1 5.5 4.4 15.8-1.1 21.5"/>
</svg>
