<?xml version="1.0" encoding="utf-8"?>
<!-- Generator: Adobe Illustrator 17.0.0, SVG Export Plug-In . SVG Version: 6.00 Build 0)  -->
<!DOCTYPE svg PUBLIC "-//W3C//DTD SVG 1.1//EN" "http://www.w3.org/Graphics/SVG/1.1/DTD/svg11.dtd">
<svg version="1.1" id="Calque_1" xmlns="http://www.w3.org/2000/svg" xmlns:xlink="http://www.w3.org/1999/xlink" x="0px" y="0px"
	 width="1025.953px" height="155.734px" viewBox="90.083 379.529 1025.953 155.734"
	 enable-background="new 90.083 379.529 1025.953 155.734" xml:space="preserve">
<g>
	<path fill="#FFFFFF" d="M90.083,457.479c0-46.205,34.238-77.784,81.108-77.784c19.612,0,32.41,4.321,45.208,11.136v30.748
		c-14.46-9.474-28.255-12.798-42.715-12.798c-30.582,0-51.191,19.612-51.191,49.529c0,30.748,22.271,48.698,48.698,48.698
		c11.136,0,22.271-2.493,29.917-10.305v-51.191h30.748v65.817c-11.967,12.798-34.238,23.934-60.665,23.934
		C125.152,535.097,90.083,503.518,90.083,457.479z"/>
	<path fill="#FFFFFF" d="M280.554,382.188h109.363v28.255h-79.446v29.086h64.155v27.258h-64.155v37.562h81.108v27.258H280.554
		V382.188L280.554,382.188z"/>
	<g>
		<path fill="#FFFFFF" d="M553.13,448.67c0.499,2.826,0.831,5.817,0.831,8.809c0,28.255-19.612,48.698-46.205,48.698
			c-2.992,0-5.651-0.332-8.476-0.831l-28.255,21.108c10.803,5.485,23.102,8.809,36.731,8.809c45.208,0,77.784-35.069,77.784-77.784
			c0-14.958-3.989-28.92-11.136-40.886L553.13,448.67z"/>
		<path fill="#FFFFFF" d="M461.717,457.479c0-28.255,19.612-48.698,46.205-48.698c3.158,0,6.15,0.332,8.975,0.831l27.922-21.108
			c-10.803-5.651-23.269-8.975-37.064-8.975c-45.208,0-77.784,34.238-77.784,77.784c0,14.792,3.989,28.587,10.97,40.388
			l21.44-32.576C462.05,462.798,461.717,460.138,461.717,457.479z"/>
	</g>
	<path display="none" fill="#FFFFFF" d="M430.138,457.479c0-43.546,32.41-77.784,77.784-77.784s77.784,35.069,77.784,77.784
		s-32.41,77.784-77.784,77.784S430.138,500.194,430.138,457.479z M553.961,457.479c0-28.255-19.612-48.698-46.205-48.698
		c-26.427,0-46.205,20.443-46.205,48.698s19.612,48.698,46.205,48.698C534.349,506.011,553.961,485.568,553.961,457.479z"/>
</g>
<g>
	<path fill="#FFFFFF" d="M658.307,403.961h-46.205v-14.46h107.701v14.46h-46.205V524.46h-15.457V403.961H658.307z"/>
	<path fill="#FFFFFF" d="M745.399,390.332h60.665c27.258,0,42.715,15.457,42.715,36.731c0,18.781-11.136,32.41-31.579,35.9
		l43.546,61.496h-18.781l-41.884-59.834h-39.224v59.834h-15.457V390.332z M804.402,450.997c17.95,0,28.255-8.476,28.255-23.102
		c0-14.626-10.305-23.103-28.255-23.103h-43.546v46.205H804.402z"/>
	<path fill="#FFFFFF" d="M886.341,390.332h93.075v14.46h-76.953v40.222h63.158v14.46h-63.158v50.36h80.443v14.46h-96.565V390.332z"
		/>
	<path fill="#FFFFFF" d="M1024.79,447.507l60.665-57.175h20.443l-64.986,61.496l75.125,72.632h-21.441l-69.972-67.479v67.479
		h-15.457V390.332h15.457L1024.79,447.507z"/>
</g>
<defs>
	<filter id="Adobe_OpacityMaskFilter" filterUnits="userSpaceOnUse">
		<feColorMatrix  type="matrix" values="1 0 0 0 0  0 1 0 0 0  0 0 1 0 0  0 0 0 1 0"/>
	</filter>
</defs>
<mask maskUnits="userSpaceOnUse" id="SVGID_2_">
	<g filter="url(#Adobe_OpacityMaskFilter)">
	</g>
</mask>
<g mask="url(#SVGID_2_)">
</g>
<polygon fill="#FFFFFF" points="493.463,445.512 434.46,535.097 521.053,470.609 581.219,379.695 "/>
</svg>
