<?xml version="1.0" encoding="utf-8"?>
<!-- Generator: Adobe Illustrator 18.0.0, SVG Export Plug-In . SVG Version: 6.00 Build 0)  -->
<!DOCTYPE svg PUBLIC "-//W3C//DTD SVG 1.1//EN" "http://www.w3.org/Graphics/SVG/1.1/DTD/svg11.dtd">
<svg version="1.1" id="Capa_1" xmlns="http://www.w3.org/2000/svg" xmlns:xlink="http://www.w3.org/1999/xlink" x="0px" y="0px"
	 viewBox="500.1 72.4 600.8 1020.1" enable-background="new 500.1 72.4 600.8 1020.1" xml:space="preserve">
<g>
	<path fill="#9D6BC9" d="M825.2,386.8c-4.3-9.8-14-16.2-24.8-16.2c-10.7,0-20.5,6.4-24.8,16.2L613.9,758.1
		c-4.7,10.9-1.8,23.5,7.2,31.3c9,7.7,22,8.7,32,2.4l147.4-92.9l147.4,92.9c4.4,2.8,9.4,4.2,14.4,4.2c6.3,0,12.6-2.2,17.6-6.5
		c9-7.7,11.9-20.4,7.2-31.3L825.2,386.8z M814.9,644c-4.4-2.8-9.4-4.2-14.4-4.2s-10,1.4-14.4,4.2l-87.6,55.2l102-234.1l102,234.1
		L814.9,644z"/>
	<path fill="#9D6BC9" d="M500.1,72.4v1020.1h600.8V72.4H500.1z M552.4,220.6v-95.8h496.1v95.8H552.4z M552.4,892.1V272.9h496.1
		v619.2H552.4z M552.4,1040.2v-95.8h496.1v95.8H552.4z"/>
	<rect x="718.7" y="149.6" fill="#9D6BC9" width="163.5" height="52.3"/>
	<path fill="#9D6BC9" d="M829.5,963.9l-0.6-0.5c-8.8-6.7-18.6-10.3-28.4-10.3c-15.2,0-28.9,8.5-35.7,22.1c-7.1,14.4-4.8,31.6,6.1,46
		l0.5,0.6l0.6,0.5c8.8,6.7,18.6,10.3,28.4,10.3c0,0,0,0,0,0c15.2,0,28.9-8.5,35.7-22.1c7.1-14.4,4.8-31.6-6.1-46L829.5,963.9z"/>
</g>
</svg>
