<?xml version="1.0" encoding="utf-8"?>
<!-- Generator: Adobe Illustrator 17.0.0, SVG Export Plug-In . SVG Version: 6.00 Build 0)  -->
<!DOCTYPE svg PUBLIC "-//W3C//DTD SVG 1.1//EN" "http://www.w3.org/Graphics/SVG/1.1/DTD/svg11.dtd">
<svg version="1.1" id="Calque_1" xmlns="http://www.w3.org/2000/svg" xmlns:xlink="http://www.w3.org/1999/xlink" x="0px" y="0px"
	 width="400.45px" height="291.058px" viewBox="0 0 400.45 291.058" enable-background="new 0 0 400.45 291.058"
	 xml:space="preserve">
<path fill="#9D6BC9" d="M200.225,177.448c-31.322,0-56.805,25.481-56.805,56.805s25.481,56.805,56.805,56.805
	s56.805-25.481,56.805-56.805S231.547,177.448,200.225,177.448 M200.225,259.921c-14.153,0-25.671-11.515-25.671-25.671
	c0-14.155,11.515-25.67,25.671-25.67c14.156,0,25.671,11.515,25.671,25.67C225.896,248.406,214.378,259.921,200.225,259.921"/>
<path fill="#9D6BC9" d="M200.225,0C120.31,0,46.407,40.13,2.533,107.35c-4.699,7.2-2.673,16.846,4.527,21.545
	c7.195,4.701,16.847,2.675,21.545-4.527c38.104-58.378,102.262-93.233,171.62-93.233s133.516,34.852,171.62,93.233
	c2.986,4.574,7.968,7.059,13.05,7.059c2.919,0,5.869-0.817,8.495-2.532c7.2-4.699,9.226-14.345,4.528-21.545
	C354.043,40.13,280.137,0,200.225,0"/>
<path fill="#9D6BC9" d="M200.225,81.023c-58.816,0-113.517,34.253-139.289,87.125c-3.132,6.264-1.686,13.894,3.518,18.58
	c6.388,5.749,16.232,5.233,21.987-1.157c1.214-1.349,2.148-2.854,2.809-4.44c20.817-41.93,64.276-68.973,110.975-68.973
	c46.648,0,90.068,26.988,110.977,68.976c0.659,1.585,1.593,3.085,2.807,4.434c3.075,3.415,7.317,5.153,11.577,5.153
	c3.711,0,7.434-1.318,10.41-3.996c5.163-4.646,6.631-12.194,3.588-18.437C313.742,115.276,259.041,81.023,200.225,81.023"/>
</svg>
