<?xml version="1.0" encoding="utf-8"?>
<!-- Generator: Adobe Illustrator 17.0.0, SVG Export Plug-In . SVG Version: 6.00 Build 0)  -->
<!DOCTYPE svg PUBLIC "-//W3C//DTD SVG 1.1//EN" "http://www.w3.org/Graphics/SVG/1.1/DTD/svg11.dtd">
<svg version="1.1" id="Calque_1" xmlns="http://www.w3.org/2000/svg" xmlns:xlink="http://www.w3.org/1999/xlink" x="0px" y="0px"
	 width="405.334px" height="512px" viewBox="0 0 405.334 512" enable-background="new 0 0 405.334 512" xml:space="preserve">
<path fill="#3BB6B3" d="M330.668,405.333h-21.334c-5.896,0-10.667-4.771-10.667-10.667s4.771-10.667,10.667-10.667h21.334
	c29.416,0,53.333-23.916,53.333-53.333s-23.917-53.333-53.333-53.333h-21.334c-5.896,0-10.667-4.77-10.667-10.667
	c0-5.896,4.771-10.666,10.667-10.666h21.334c41.167,0,74.666,33.5,74.666,74.666S371.835,405.333,330.668,405.333"/>
<path fill="#3BB6B3" d="M266.668,512h-192c-29.406,0-53.333-23.916-53.333-53.333V224c0-5.896,4.771-10.667,10.667-10.667h207.062
	l48.23-86.646c-4.001-3.979-7.146-8.583-9.271-13.666c-4.521-10.77-4.25-23.24,0.75-35.104c2.626-6.23,6.979-11.719,11.563-17.51
	c12.021-15.178,18.812-25.344,7.541-42.522c-2.396-3.656-2.334-8.417,0.187-12c2.542-3.573,6.958-5.271,11.229-4.219
	c30.875,7.469,52.73,29.229,59.958,59.708c6.501,27.479-0.729,55.771-18.021,70.396c-6.104,5.178-13.083,8.355-20.583,9.511
	l-27.208,72.052h5.896c5.896,0,10.667,4.771,10.667,10.667v234.667C320.001,488.083,296.085,512,266.668,512 M42.668,234.667v224
	c0,17.645,14.354,31.999,31.999,31.999h192.001c17.645,0,31.999-14.354,31.999-31.999v-224H288.25h-0.499h-42.208
	c-0.208-0.021-0.292-0.011-0.438,0L42.668,234.667L42.668,234.667z M263.48,213.333h17.146l27.98-74.083
	c-1.084-0.344-2.167-0.729-3.25-1.145L263.48,213.333z M307.71,115.688c1.208,0.719,2.521,1.365,3.896,1.948
	c10.333,4.333,19.042,3.594,25.854-2.146c10.937-9.27,15.583-29.958,11.021-49.198c-3.5-14.812-11.75-26.822-23.521-34.853
	c1.208,18.094-9.791,31.989-17.896,42.208c-3.667,4.636-7.146,9-8.625,12.553c-2.791,6.635-3.062,13.062-0.75,18.583
	c1.583,3.781,4.313,7.052,8.042,9.646c0.146,0.073,0.312,0.156,0.458,0.239C306.731,114.969,307.23,115.313,307.71,115.688"/>
<path fill="#3BB6B3" d="M117.335,234.667h-64c-4.041,0-7.729-2.282-9.541-5.896l-31.917-63.834
	c-0.563-1.073-0.927-2.218-1.095-3.385L0.147,97.751c-0.688-4.104,1.084-8.229,4.521-10.563c3.416-2.375,7.885-2.5,11.489-0.333
	l53.126,31.875c1.197,0.688,2.291,1.615,3.177,2.771c0.01,0.01,0.01,0.021,0.021,0.031c0.01,0-0.021,0,0.031,0.031
	c0.01,0-0.011,0,0.021,0.032v0.01c0.01,0,0.01,0.011,0.021,0.021l0.01,0.01c0,0,0,0.011,0.011,0.021l0.01,0.011
	c0,0.01,0.01,0.01,0.01,0.01c0.313,0.428,0.584,0.854,0.823,1.302l53.239,95.844c1.833,3.302,1.792,7.333-0.125,10.583
	C124.616,232.667,121.116,234.667,117.335,234.667 M59.928,213.333H99.21l-38.594-69.459l-25.761,19.313L59.928,213.333z
	 M24.991,117.031l3.98,23.907l15.937-11.948L24.991,117.031z"/>
<path fill="#3BB6B3" d="M224.001,234.667h-85.333c-5.896,0-10.667-4.771-10.667-10.667V10.667C128.001,4.771,132.773,0,138.668,0
	h85.333c5.896,0,10.667,4.771,10.667,10.667V224C234.668,229.896,229.897,234.667,224.001,234.667 M149.335,213.333h64v-21.334
	h-10.667c-5.896,0-10.666-4.77-10.666-10.667c0-5.896,4.77-10.667,10.666-10.667h10.667v-21.333h-31.999
	c-5.897,0-10.667-4.771-10.667-10.667s4.77-10.667,10.667-10.667h31.999v-21.334h-10.667c-5.896,0-10.666-4.771-10.666-10.667
	s4.77-10.667,10.666-10.667h10.667V64h-31.999c-5.897,0-10.667-4.77-10.667-10.666c0-5.897,4.77-10.667,10.667-10.667h31.999V21.334
	h-64L149.335,213.333L149.335,213.333z"/>
</svg>
