<?xml version="1.0" encoding="utf-8"?>
<!-- Generator: Adobe Illustrator 17.0.0, SVG Export Plug-In . SVG Version: 6.00 Build 0)  -->
<!DOCTYPE svg PUBLIC "-//W3C//DTD SVG 1.1//EN" "http://www.w3.org/Graphics/SVG/1.1/DTD/svg11.dtd">
<svg version="1.1" id="Calque_1" xmlns="http://www.w3.org/2000/svg" xmlns:xlink="http://www.w3.org/1999/xlink" x="0px" y="0px"
	 width="512px" height="512px" viewBox="0 0 512 512" enable-background="new 0 0 512 512" xml:space="preserve">
<g>
	<path fill="#EE6B4D" d="M464.988,130.279l-88.611-73.792c-4.775-3.977-11.704-3.975-16.479,0l-88.612,73.792
		c-2.938,2.446-4.637,6.072-4.637,9.894v358.951c0,7.111,5.765,12.876,12.876,12.876h177.223c7.111,0,12.876-5.765,12.876-12.876
		V140.173C469.625,136.351,467.926,132.724,464.988,130.279L464.988,130.279z M443.873,486.248H292.402V146.207l75.736-63.07
		l75.735,63.07V486.248z"/>
	<path fill="#EE6B4D" d="M203.713,278.366l-88.611-73.794c-4.775-3.975-11.704-3.975-16.479,0l-88.611,73.792
		c-2.938,2.446-4.637,6.072-4.637,9.894v210.864c0,7.111,5.765,12.876,12.876,12.876h177.223c7.111,0,12.876-5.765,12.876-12.876
		V288.26C208.35,284.436,206.65,280.81,203.713,278.366L203.713,278.366z M182.598,486.248H31.127V294.291l75.735-63.07
		l75.736,63.07V486.248z"/>
	<path fill="#EE6B4D" d="M93.985,306.064v95.466l-5.864-5.864c-5.029-5.027-13.181-5.027-18.21,0
		c-5.027,5.027-5.027,13.181,0,18.208l25.371,25.369c3.191,3.191,7.385,4.786,11.579,4.786s8.39-1.597,11.585-4.788l25.368-25.367
		c5.027-5.027,5.027-13.181,0-18.208c-5.029-5.027-13.181-5.027-18.21,0l-5.864,5.864v-95.468c0-7.111-5.765-12.876-12.876-12.876
		C99.752,293.186,93.985,298.952,93.985,306.064L93.985,306.064z"/>
	<path fill="#EE6B4D" d="M356.554,274.348l-25.367,25.367c-5.027,5.027-5.027,13.181,0,18.208c5.029,5.027,13.181,5.027,18.21,0
		l5.864-5.864v95.468c0,7.111,5.765,12.876,12.876,12.876s12.876-5.765,12.876-12.876v-95.466l5.864,5.864
		c2.515,2.514,5.811,3.771,9.105,3.771s6.591-1.258,9.105-3.771c5.027-5.027,5.027-13.181,0-18.208l-25.371-25.369
		C373.333,267.962,362.946,267.964,356.554,274.348L356.554,274.348z"/>
</g>
</svg>
