<?xml version="1.0" encoding="utf-8"?>
<!-- Generator: Adobe Illustrator 18.0.0, SVG Export Plug-In . SVG Version: 6.00 Build 0)  -->
<!DOCTYPE svg PUBLIC "-//W3C//DTD SVG 1.1//EN" "http://www.w3.org/Graphics/SVG/1.1/DTD/svg11.dtd">
<svg version="1.1" id="Capa_1" xmlns="http://www.w3.org/2000/svg" xmlns:xlink="http://www.w3.org/1999/xlink" x="0px" y="0px"
	 viewBox="0 0 542 342.5" enable-background="new 0 0 542 342.5" xml:space="preserve">
<path fill="#3BB6B3" d="M496.6,61.3c-28-33.2-69-51.6-115.4-51.6h-82.9c-10.6,0-19.9,6-24.4,15c-0.7-1.4-1.6-2.8-2.6-4.1
	C266.2,14,258.1,10,249.7,10H76.8c-15.1,0-27.3,12.3-27.3,27.3v31.2c0,15.1,12.3,27.3,27.3,27.3h34.4l-47.6,40.9
	c-5.8,4.9-9.2,12.1-9.5,19.7c-0.3,7.6,2.6,15,8,20.3L82,196.7c5.1,5.2,12,8,19.3,8c1,0,1.9-0.1,2.9-0.2l0.5-0.1
	c0.2,0,4.9-0.5,11.9-0.5c25.9,0,38.3,5.8,41.2,8.9c0.6,0.6,1,3.3,0.1,8.7c-3.6,21.8-23.5,28.8-35,31.1c-4.6,0.9-9.2,1.3-13.6,1.3
	c-9.1,0-14.7-1.8-17.2-2.8l-1.8-3c-3.8-6.2-9.8-10.6-16.8-12.3c-2.1-0.5-4.3-0.8-6.5-0.8c-5,0-9.9,1.4-14.2,4l-26.6,16.2
	c-12.8,7.8-17,24.7-9.1,37.5l3.9,6.3c7.9,12.9,20.7,23.5,37,30.6c15.1,6.6,33,10,51.8,10c9.9,0,19.8-1,29.6-2.8
	c27.1-5.3,51-17.3,68.9-34.7c12.1-11.7,21.3-25.8,27.5-41.5l-8.1,47.4c-1.4,8,0.8,16.1,6,22.2c5.2,6.2,12.8,9.7,20.9,9.7h84.7
	c43.2,0,86.5-16.3,122.1-46c35.6-29.7,59.1-69.4,66.4-111.6C535.4,137.3,524.3,94.3,496.6,61.3z M181.7,225.6
	c2.2-13.1,0.1-22.3-6.4-29.2c-10-10.6-30.9-16.4-58.7-16.4c-8.6,0-14.4,0.6-14.5,0.6l-0.4,0c-0.2,0-0.3,0-0.4,0
	c-0.9,0-1.7-0.3-2.3-1l-19.9-19.9c-0.6-0.6-1-1.5-1-2.5c0-0.9,0.5-1.8,1.2-2.4l96.9-83.2H76.8c-1.8,0-3.3-1.5-3.3-3.3V37.3
	c0-1.8,1.5-3.3,3.3-3.3h172.8v0c1,0,2,0.5,2.6,1.3c0.6,0.8,0.8,1.9,0.6,2.7l-6.4,22.4c-0.2,0.6-0.5,1.1-1,1.4l-96.2,82.6l9.4,2.3
	c18.7,4.6,33.5,12.5,44,23.5c14.9,15.7,20.3,36.3,16.2,61.3c-7,42.3-38.4,72.8-84.2,81.6c-8.2,1.6-16.6,2.4-25,2.4
	c-31.2,0-57.3-11.2-68.3-29.1l-3.9-6.3c-0.9-1.5-0.4-3.6,1.1-4.5l26.6-16.2c0.5-0.3,1.1-0.5,1.7-0.5c0.3,0,0.5,0,0.8,0.1
	c0.8,0.2,1.5,0.7,2,1.5l3.9,6.4c2.7,4.4,15.9,11,35.7,11c6,0,12.1-0.6,18.2-1.8C141.7,273.6,175.5,263.1,181.7,225.6z M430.6,116.9
	c11.1,13.2,15.4,31.3,12,50.9c-8.2,47.5-54.6,86.1-103.5,86.1h-14.8l23.3-135.7c1.4-7.9-0.8-16-6-22.2h39.5
	C401.7,96,419.3,103.4,430.6,116.9z M251.2,312.2L285.4,113c0.3-1.6,1.6-2.7,3.2-2.7h32.1c1,0,1.9,0.4,2.5,1.2
	c0.6,0.7,0.9,1.7,0.7,2.7l-28.2,163.7h43.3c60.1,0,117.1-47.6,127.2-106c4.6-26.7-1.5-51.7-17.3-70.4c-16-19-40.1-29.4-67.8-29.4
	H293c-1,0-1.9-0.4-2.5-1.1c-0.6-0.7-0.9-1.7-0.7-2.7l5.3-31.6c0.3-1.6,1.6-2.7,3.2-2.7h82.9v0c39.2,0,73.7,15.3,97,43
	c23.1,27.5,32.3,63.5,25.7,101.5c-13.1,75.9-87,137.7-164.8,137.7h-84.7c-1,0-1.9-0.4-2.5-1.2C251.3,314.1,251,313.2,251.2,312.2z
	 M241.1,191.2c-3.8-14-10.8-26.6-21-37.3c-6.7-7-14.6-13.1-23.7-18.1l64.7-55.6c2-1.7,3.7-3.7,5.2-5.9c0.9,4.4,2.9,8.5,5.8,12
	l0.1,0.2c1,1.2,2.1,2.2,3.2,3.2c-7.1,3.9-12.3,10.9-13.7,19.3l-17.6,102.6C243.8,204.5,242.8,197.7,241.1,191.2z"/>
</svg>
