<?xml version="1.0" encoding="utf-8"?>
<!-- Generator: Adobe Illustrator 17.0.0, SVG Export Plug-In . SVG Version: 6.00 Build 0)  -->
<!DOCTYPE svg PUBLIC "-//W3C//DTD SVG 1.1//EN" "http://www.w3.org/Graphics/SVG/1.1/DTD/svg11.dtd">
<svg version="1.1" id="Calque_1" xmlns="http://www.w3.org/2000/svg" xmlns:xlink="http://www.w3.org/1999/xlink" x="0px" y="0px"
	 width="512px" height="512px" viewBox="0 0 512 512" enable-background="new 0 0 512 512" xml:space="preserve">
<path fill="#EE6B4D" d="M292.96,180.256c-5.599-3.6-12.128-4.576-18.16-3.232c-5.968,1.328-11.44,4.928-15.008,10.48
	c-3.584,5.584-4.559,12.08-3.231,18.08c1.311,6,4.912,11.503,10.48,15.072c23.152,14.832,36.96,40.016,36.96,67.344
	c0,21.376-8.32,41.456-23.424,56.559l-96,96C169.457,455.679,149.361,464,128.001,464c-44.113,0-80-35.888-80-80
	c0-21.376,8.32-41.456,23.424-56.559l45.536-45.552c4.8-4.8,7.136-11.121,7.04-17.408c-0.112-6.001-2.448-11.953-7.04-16.529
	c-4.688-4.688-10.832-7.04-16.96-7.04c-6.144,0-12.288,2.336-16.959,7.04l-45.536,45.552C13.312,317.664,0,349.808,0,384
	c0,70.576,57.424,128,128,128c34.192,0,66.336-13.312,90.512-37.504l96-96C338.687,354.353,352,322.192,352,288
	C352,244.24,329.936,203.968,292.96,180.256 M384,0c-34.192,0-66.336,13.312-90.512,37.504l-96,96
	C173.312,157.647,160,189.808,160,223.984c0,43.76,22.065,84.048,59.04,107.76c5.6,3.583,12.128,4.56,18.16,3.216
	c5.967-1.312,11.44-4.912,15.008-10.464c3.584-5.599,4.56-12.096,3.231-18.096c-1.311-6-4.911-11.504-10.48-15.056
	c-23.136-14.848-36.96-40.032-36.96-67.36c0-21.376,8.32-41.456,23.424-56.56l96-96C342.544,56.32,362.64,48,384,48
	c44.112,0,80,35.888,80,79.984c0,21.376-8.32,41.456-23.424,56.56L395.04,230.08c-4.8,4.8-7.136,11.121-7.04,17.408
	c0.112,6.001,2.448,11.953,7.04,16.528c4.688,4.689,10.831,7.024,16.976,7.024c6.144,0,12.288-2.335,16.96-7.024l45.536-45.552
	C498.688,194.336,512,162.176,512,127.984C512,57.424,454.576,0,384,0"/>
</svg>
