<?xml version="1.0" encoding="utf-8"?>
<!-- Generator: Adobe Illustrator 18.0.0, SVG Export Plug-In . SVG Version: 6.00 Build 0)  -->
<!DOCTYPE svg PUBLIC "-//W3C//DTD SVG 1.1//EN" "http://www.w3.org/Graphics/SVG/1.1/DTD/svg11.dtd">
<svg version="1.1" id="Calque_1" xmlns="http://www.w3.org/2000/svg" xmlns:xlink="http://www.w3.org/1999/xlink" x="0px" y="0px"
	 viewBox="145.1 -74.5 1293.7 1372.3" enable-background="new 145.1 -74.5 1293.7 1372.3" xml:space="preserve">
<g>
	<path fill="#3BB6B3" d="M1193.2,807.1c-78.9,0-149.3,37.6-194.3,95.7l-377-210.6c8.8-25.4,13.7-52.7,13.7-80.9
		c0-28.5-4.8-55.6-14-81.2l376.7-210.3c44.7,58.4,115.4,96.3,194.6,96.3c135.1,0,245.3-110,245.3-245.3s-110-245.3-245.3-245.3
		s-245.3,110-245.3,245.3c0,28.5,4.8,55.8,14,81.2L585.1,462.4C540.3,403.7,469.7,366,390.5,366c-135.1,0-245.3,110-245.3,245.3
		s110.3,245.3,245.6,245.3c79.2,0,149.9-37.9,194.9-96.6l376.7,210.6c-9.1,25.6-14.2,53.3-14.2,81.8c0,135.1,110,245.3,245.3,245.3
		s245.3-110,245.3-245.3S1328.5,807.1,1193.2,807.1z M1193.2,2.7c92.9,0,168.4,75.5,168.4,168.4s-75.5,168.4-168.4,168.4
		c-92.9,0-168.4-75.5-168.4-168.4S1100.6,2.7,1193.2,2.7z M390.8,779.8c-92.9,0-168.4-75.5-168.4-168.4S297.9,443,390.8,443
		s168.4,75.5,168.4,168.4S483.4,779.8,390.8,779.8z M1193.2,1220.6c-92.9,0-168.4-75.5-168.4-168.4c0-92.9,75.5-168.4,168.4-168.4
		c92.9,0,168.4,75.5,168.4,168.4C1361.6,1145.1,1286.1,1220.6,1193.2,1220.6z"/>
</g>
</svg>
